<?xml version="1.0" standalone="no"?><!DOCTYPE svg PUBLIC "-//W3C//DTD SVG 1.1//EN" "http://www.w3.org/Graphics/SVG/1.1/DTD/svg11.dtd"><svg class="icon" width="200px" height="200.00px" viewBox="0 0 1024 1024" version="1.1" fill="#fff" xmlns="http://www.w3.org/2000/svg"><path d="M170.65984 85.34016l682.65984 0q53.00224 0 90.50112 37.49888t37.49888 90.50112l0 426.65984q0 53.00224-37.49888 90.50112t-90.50112 37.49888l-106.65984 0-64-85.34016 170.65984 0q17.67424 0 30.16704-12.4928t12.4928-30.16704l0-426.65984q0-17.67424-12.4928-30.16704t-30.16704-12.4928l-682.65984 0q-17.67424 0-30.16704 12.4928t-12.4928 30.16704l0 426.65984q0 17.67424 12.4928 30.16704t30.16704 12.4928l170.65984 0-64 85.34016-106.65984 0q-53.00224 0-90.50112-37.49888t-37.49888-90.50112l0-426.65984q0-53.00224 37.49888-90.50112t90.50112-37.49888zM597.34016 853.34016l-85.34016-113.664-85.34016 113.664 170.65984 0zM256 938.65984l256-341.34016 256 341.34016-512 0z" /></svg>