<?xml version="1.0" standalone="no"?><!DOCTYPE svg PUBLIC "-//W3C//DTD SVG 1.1//EN" "http://www.w3.org/Graphics/SVG/1.1/DTD/svg11.dtd"><svg class="icon" width="200px" height="200.00px" viewBox="0 0 1024 1024" version="1.1" fill="#fff" xmlns="http://www.w3.org/2000/svg"><path d="M298.65984 42.65984q35.328 0 76.00128 8.82688t78.336 21.34016l75.32544 25.00608t78.336 21.34016 76.00128 8.82688q36.00384 0 71.00416-4.34176t59.65824-10.67008 44.17536-12.67712 29.16352-10.67008l9.33888-4.34176 0 597.34016q-3.33824 1.65888-9.99424 4.5056t-28.16 10.3424-44.83072 13.0048-58.83904 10.15808-71.49568 4.66944q-35.328 0-76.00128-8.82688t-78.336-21.34016l-75.32544-25.00608t-78.336-21.34016-76.00128-8.82688q-63.67232 0-128 14.336l0 284.32384q0 17.67424-12.4928 30.16704t-30.16704 12.4928-30.16704-12.4928-12.4928-30.16704l0-853.34016q3.33824-1.65888 9.99424-4.5056t28.16-10.3424 44.83072-13.0048 58.83904-10.15808 71.49568-4.66944zM298.65984 128q-65.3312 0-128 16.9984l0 422.33856q64-12.67712 128-12.67712 47.32928 0 94.65856 10.83392t107.66336 30.84288q7.65952 2.6624 28.83584 9.8304t31.00672 10.3424 28.83584 8.66304 31.82592 8.00768 29.4912 4.66944 31.66208 2.17088q65.3312 0 128-16.9984l0-422.33856q-64 12.67712-128 12.67712-47.32928 0-94.65856-10.83392t-107.66336-30.84288q-7.65952-2.6624-28.83584-9.8304t-31.00672-10.3424-28.83584-8.66304-31.82592-8.00768-29.4912-4.66944-31.66208-2.17088z" /></svg>