<?xml version="1.0" standalone="no"?><!DOCTYPE svg PUBLIC "-//W3C//DTD SVG 1.1//EN" "http://www.w3.org/Graphics/SVG/1.1/DTD/svg11.dtd"><svg t="1533800752619" class="icon" style="" fill="#fff" viewBox="0 0 1024 1024" version="1.1" xmlns="http://www.w3.org/2000/svg" p-id="1033" xmlns:xlink="http://www.w3.org/1999/xlink" width="22" height="22"><defs><style type="text/css"></style></defs><path d="M578.656 334.144c-10.048-10.08-26.368-10.08-36.352 0l-143.712 146.688c-10.048 10.176-10.048 26.624 0 36.704l143.712 146.624c9.984 10.176 26.304 10.144 36.352 0 10.048-10.08 10.048-26.528 0-36.704l-117.856-128.256 117.856-128.32c10.048-10.144 10.048-26.528 0-36.768zM512 7.68c-271.456 0-491.52 220.064-491.52 491.52 0 271.52 220.064 491.52 491.52 491.52s491.52-220 491.52-491.52c0-271.456-220.064-491.52-491.52-491.52zM512 926.912c-236.288 0-427.712-191.488-427.712-427.712s191.424-427.712 427.712-427.712c236.192 0 427.712 191.488 427.712 427.712s-191.552 427.712-427.712 427.712z" p-id="1034"></path></svg>