<?xml version="1.0" standalone="no"?><!DOCTYPE svg PUBLIC "-//W3C//DTD SVG 1.1//EN" "http://www.w3.org/Graphics/SVG/1.1/DTD/svg11.dtd"><svg class="icon" width="200px" height="199.80px" viewBox="0 0 1025 1024" version="1.1" fill="#fff" xmlns="http://www.w3.org/2000/svg"><path d="M512.04096 0q69.67296 0 128.49152 34.32448t93.16352 93.16352 34.32448 128.49152l0 128q0 53.32992-20.66432 101.00736t-57.67168 83.00544q97.34144 15.33952 172.99456 45.1584t118.49728 70.49216 42.82368 85.66784l0 84.00896q0 53.00224-37.49888 90.50112t-90.50112 37.49888l-768 0q-53.00224 0-90.50112-37.49888t-37.49888-90.50112l0-84.33664q0-44.99456 42.82368-85.66784t118.33344-70.49216 172.83072-44.83072q-36.6592-35.67616-57.32352-83.16928t-20.66432-100.82304l0-128q0-69.67296 34.32448-128.49152t93.16352-93.16352 128.49152-34.32448zM512.04096 640q-92.672 0-178.83136 14.82752t-150.15936 41.49248q-25.66144 10.67008-45.83424 22.67136t-30.65856 21.66784-15.83104 16.83456-5.3248 11.50976l0 84.33664q0 17.67424 12.4928 30.16704t30.16704 12.4928l768 0q17.67424 0 30.16704-12.4928t12.4928-30.16704l0-84.00896q0-4.34176-5.3248-11.50976t-15.83104-16.83456-30.65856-21.66784-45.83424-22.99904q-64-26.66496-150.15936-41.49248t-178.83136-14.82752zM512.04096 85.34016q-70.67648 0-120.66816 49.99168t-49.99168 120.66816l0 128q0 70.67648 49.99168 120.66816t120.66816 49.99168 120.66816-49.99168 49.99168-120.66816l0-128q0-70.67648-49.99168-120.66816t-120.66816-49.99168z" /></svg>