<?xml version="1.0" encoding="utf-8"?>
<!-- Generator: Adobe Illustrator 22.1.0, SVG Export Plug-In . SVG Version: 6.00 Build 0)  -->
<svg version="1.1" id="图层_1" xmlns="http://www.w3.org/2000/svg" xmlns:xlink="http://www.w3.org/1999/xlink" x="0px" y="0px"
	 viewBox="0 0 200 200" style="enable-background:new 0 0 200 200;" xml:space="preserve">
<style type="text/css">
	.st0{fill:#37474F;}
</style>
<path class="st0" d="M47.3,0c4.6,0,9.5,0.6,14.8,1.7s10.4,2.5,15.3,4.2l14.7,4.9c0,0,5.1,1.4,15.3,4.2s15.1,3.4,14.8,1.7
	c4.7,0,9.3-0.3,13.9-0.8c4.6-0.6,8.4-1.3,11.7-2.1c3.2-0.8,6.1-1.6,8.6-2.5s4.4-1.5,5.7-2.1l1.8-0.8v116.7c-0.4,0.2-1.1,0.5-2,0.9
	s-2.7,1-5.5,2s-5.7,1.8-8.8,2.5c-3,0.7-6.9,1.4-11.5,2s-9.3,0.9-14,0.9c-4.6,0-9.5-0.6-14.8-1.7c-5.3-1.1-10.4-2.5-15.3-4.2
	l-14.7-4.9c0,0-5.1-1.4-15.3-4.2s-15.1-3.4-14.8-1.7c-8.3,0-16.6,0.9-25,2.8V175c0,2.3-0.8,4.3-2.4,5.9c-1.6,1.6-3.6,2.4-5.9,2.4
	c-2.3,0-4.3-0.8-5.9-2.4c-1.6-1.6-2.4-3.6-2.4-5.9V8.4c0.4-0.2,1.1-0.5,2-0.9s2.7-1,5.5-2s5.7-1.8,8.8-2.5c3-0.7,6.9-1.4,11.5-2
	C38,0.3,42.7,0,47.3,0L47.3,0z"/>
</svg>
