<svg xmlns="http://www.w3.org/2000/svg" xmlns:xlink="http://www.w3.org/1999/xlink" viewBox="0 0 24 24"><defs><style>.a,.c{fill:#909399;}.a{stroke:#909399;}.b{clip-path:url(#a);}</style><clipPath id="a"><rect class="a" width="24" height="24" transform="translate(1180 389)"/></clipPath></defs><g class="b" transform="translate(-1180 -389)"><path class="c" d="M24.214,3.214h-21a1.5,1.5,0,0,0-1.5,1.5v15a1.5,1.5,0,0,0,1.5,1.5h7.5v1.5H8.464a.75.75,0,0,0,0,1.5h10.5a.75.75,0,0,0,0-1.5h-2.25v-1.5h7.5a1.5,1.5,0,0,0,1.5-1.5v-15A1.5,1.5,0,0,0,24.214,3.214Zm-9,19.5h-3v-1.5h3Zm9-3h-21v-1.5h21Zm-21-3v-12h21v12Z" transform="translate(1178.286 387.286)"/></g></svg>