<svg xmlns="http://www.w3.org/2000/svg" xmlns:xlink="http://www.w3.org/1999/xlink" viewBox="0 0 30 30"><defs><style>.a,.c{fill:#409eff;}.a{stroke:#707070;}.b{clip-path:url(#a);}</style><clipPath id="a"><rect class="a" width="30" height="30" transform="translate(1150 389)"/></clipPath></defs><g class="b" transform="translate(-1150 -389)"><g transform="translate(1150 389)"><path class="c" d="M12.414,13.448a1.034,1.034,0,0,1-1.034-1.034V2.069H2.069v9.31H7.241a1.034,1.034,0,1,1,0,2.069H1.034A1.034,1.034,0,0,1,0,12.414V1.034A1.034,1.034,0,0,1,1.034,0H12.414a1.034,1.034,0,0,1,1.034,1.034V12.414a1.034,1.034,0,0,1-1.034,1.034Z"/><path class="c" d="M4.448,4.448H9V9H4.448Z"/><path class="c" d="M21,4.448h4.552V9H21Z"/><path class="c" d="M28.966,13.448H22.759a1.034,1.034,0,1,1,0-2.069h5.172V2.069h-9.31V12.414a1.034,1.034,0,0,1-2.069,0V1.034A1.034,1.034,0,0,1,17.586,0H28.966A1.034,1.034,0,0,1,30,1.034V12.414a1.034,1.034,0,0,1-1.034,1.034Z"/><path class="c" d="M4.448,21H9v4.552H4.448Z"/><path class="c" d="M12.414,30H1.034A1.034,1.034,0,0,1,0,28.966V17.586a1.034,1.034,0,0,1,1.034-1.034H7.241a1.034,1.034,0,0,1,0,2.069H2.069v9.31h9.31V17.586a1.034,1.034,0,1,1,2.069,0V28.966A1.034,1.034,0,0,1,12.414,30Zm5.172,0a1.034,1.034,0,0,1-1.034-1.034V17.586a1.034,1.034,0,1,1,2.069,0V28.966A1.034,1.034,0,0,1,17.586,30ZM28.966,19.966H26.586V18.621h2.379a1.034,1.034,0,1,0,0-2.069H25.552a1.034,1.034,0,0,0-1.034,1.034v2.379H22.034V17.586a1.034,1.034,0,1,0-2.069,0V21A1.034,1.034,0,0,0,21,22.034h7.966a1.034,1.034,0,1,0,0-2.069Zm0,10.034a1.034,1.034,0,0,1-1.034-1.034V25.448H21a1.034,1.034,0,1,1,0-2.069h7.966A1.034,1.034,0,0,1,30,24.414v4.552A1.034,1.034,0,0,1,28.966,30ZM21,30a1.034,1.034,0,0,1-1.034-1.034V27.828a1.034,1.034,0,0,1,2.069,0v1.138A1.034,1.034,0,0,1,21,30Z"/><path class="c" d="M24.414,30a1.034,1.034,0,0,1-1.034-1.034V27.828a1.034,1.034,0,1,1,2.069,0v1.138A1.034,1.034,0,0,1,24.414,30Z"/></g></g></svg>