<svg xmlns="http://www.w3.org/2000/svg" xmlns:xlink="http://www.w3.org/1999/xlink" viewBox="0 0 16 16"><defs><style>.a,.c{fill:#fff;}.a{stroke:#707070;}.b{clip-path:url(#a);}</style><clipPath id="a"><rect class="a" width="16" height="16" transform="translate(15 256)"/></clipPath></defs><g class="b" transform="translate(-15 -256)"><path class="c" d="M5.636,1a6.128,6.128,0,0,1,1.3.15,12.928,12.928,0,0,1,1.335.364l1.284.426,1.335.364,1.3.15a9.822,9.822,0,0,0,1.21-.074A8.243,8.243,0,0,0,14.409,2.2q.42-.108.753-.216t.5-.182l.159-.074V11.908q-.057.028-.17.077t-.48.176a7.691,7.691,0,0,1-.764.222q-.4.094-1,.173a9.42,9.42,0,0,1-1.219.08,6.128,6.128,0,0,1-1.3-.15,12.928,12.928,0,0,1-1.335-.364L8.267,11.7l-1.335-.364-1.3-.15a10,10,0,0,0-2.182.244v4.846A.727.727,0,0,1,2.728,17,.727.727,0,0,1,2,16.272V1.726q.057-.028.17-.077t.48-.176a7.691,7.691,0,0,1,.764-.222q.4-.094,1-.173A9.42,9.42,0,0,1,5.637,1Zm0,1.455a8.3,8.3,0,0,0-2.182.29v7.2a11.2,11.2,0,0,1,2.182-.216,7.21,7.21,0,0,1,1.613.185q.807.185,1.835.526l.492.168q.361.122.529.176t.492.148q.324.094.542.136t.5.08a4.272,4.272,0,0,0,.54.037,8.3,8.3,0,0,0,2.182-.29v-7.2a11.2,11.2,0,0,1-2.182.216,7.21,7.21,0,0,1-1.613-.185Q9.761,3.54,8.733,3.2l-.492-.168q-.361-.122-.529-.176t-.492-.148q-.324-.094-.542-.136t-.5-.08a4.271,4.271,0,0,0-.54-.037Z" transform="translate(14.091 255.001)"/></g></svg>