<svg xmlns="http://www.w3.org/2000/svg" xmlns:xlink="http://www.w3.org/1999/xlink" viewBox="0 0 16 16"><defs><style>.a,.c{fill:#fff;}.a{stroke:#707070;}.b{clip-path:url(#a);}</style><clipPath id="a"><rect class="a" width="16" height="16" transform="translate(15 332)"/></clipPath></defs><g class="b" transform="translate(-15 -332)"><path class="c" d="M9,1a7.823,7.823,0,0,1,3.111.634,7.863,7.863,0,0,1,4.256,4.256,7.953,7.953,0,0,1,0,6.221,7.863,7.863,0,0,1-4.256,4.256,7.953,7.953,0,0,1-6.221,0,7.863,7.863,0,0,1-4.256-4.256,7.953,7.953,0,0,1,0-6.221A7.863,7.863,0,0,1,5.889,1.633,7.823,7.823,0,0,1,9,1ZM8.273,9.727V2.494a6.428,6.428,0,0,0-2.287.7A6.616,6.616,0,0,0,4.134,4.619a6.536,6.536,0,0,0-1.227,2,6.489,6.489,0,0,0,.068,4.924,6.434,6.434,0,0,0,3.483,3.483,6.489,6.489,0,0,0,4.924.068,6.531,6.531,0,0,0,2-1.227A6.624,6.624,0,0,0,14.8,12.014a6.418,6.418,0,0,0,.7-2.287H8.273ZM9.727,2.494V8.273h5.778a6.422,6.422,0,0,0-.619-2.134,6.476,6.476,0,0,0-3.026-3.026,6.422,6.422,0,0,0-2.134-.619Z" transform="translate(14 331)"/></g></svg>