<svg xmlns="http://www.w3.org/2000/svg" xmlns:xlink="http://www.w3.org/1999/xlink" viewBox="0 0 16 16"><defs><style>.a,.c{fill:#fff;}.a{stroke:#707070;}.b{clip-path:url(#a);}</style><clipPath id="a"><rect class="a" width="16" height="16" transform="translate(15 218)"/></clipPath></defs><g class="b" transform="translate(-15 -218)"><path class="c" d="M8,0a3.913,3.913,0,0,1,2.008.536,3.983,3.983,0,0,1,1.456,1.456A3.91,3.91,0,0,1,12,4V6a3.961,3.961,0,0,1-1.224,2.875,12.823,12.823,0,0,1,2.7.706,5.7,5.7,0,0,1,1.852,1.1A1.848,1.848,0,0,1,16,12.02v1.313a2,2,0,0,1-2,2H2a1.927,1.927,0,0,1-1.414-.586A1.927,1.927,0,0,1,0,13.333V12.015a1.849,1.849,0,0,1,.669-1.339,5.7,5.7,0,0,1,1.849-1.1,12.582,12.582,0,0,1,2.7-.7,4.049,4.049,0,0,1-.9-1.3A3.906,3.906,0,0,1,4,6V4a3.913,3.913,0,0,1,.536-2.008A3.983,3.983,0,0,1,5.992.537,3.91,3.91,0,0,1,8,0ZM8,10a16.453,16.453,0,0,0-2.794.232,10.949,10.949,0,0,0-2.346.648,5.63,5.63,0,0,0-.716.354,2.951,2.951,0,0,0-.479.339,2.029,2.029,0,0,0-.247.263.337.337,0,0,0-.083.18v1.318A.666.666,0,0,0,2,14H14a.666.666,0,0,0,.667-.667V12.021a.34.34,0,0,0-.083-.18,2,2,0,0,0-.247-.263,2.97,2.97,0,0,0-.479-.339,6.078,6.078,0,0,0-.716-.359,10.949,10.949,0,0,0-2.346-.648A16.453,16.453,0,0,0,8,10ZM8,1.333a2.569,2.569,0,0,0-1.885.781A2.569,2.569,0,0,0,5.334,4V6A2.667,2.667,0,0,0,8,8.667,2.667,2.667,0,0,0,10.667,6V4a2.569,2.569,0,0,0-.781-1.885A2.569,2.569,0,0,0,8,1.333Z" transform="translate(15 218.333)"/></g></svg>