<svg xmlns="http://www.w3.org/2000/svg" xmlns:xlink="http://www.w3.org/1999/xlink" viewBox="0 0 16 16"><defs><style>.a,.c{fill:#fff;}.a{stroke:#707070;}.b{clip-path:url(#a);}</style><clipPath id="a"><rect class="a" width="16" height="16" transform="translate(15 370)"/></clipPath></defs><g class="b" transform="translate(-15 -370)"><path class="c" d="M3.833,0h9.333a1.927,1.927,0,0,1,1.414.586A1.927,1.927,0,0,1,15.167,2V14a2,2,0,0,1-2,2H3.833a1.927,1.927,0,0,1-1.414-.586A1.927,1.927,0,0,1,1.833,14V2A1.927,1.927,0,0,1,2.419.586,1.927,1.927,0,0,1,3.833,0Zm2,11.333h5.333a.667.667,0,1,1,0,1.333H5.833a.667.667,0,1,1,0-1.333Zm0-2.667h5.333a.667.667,0,1,1,0,1.333H5.833a.667.667,0,1,1,0-1.333Zm7.333-7.333H3.833A.666.666,0,0,0,3.167,2V14a.666.666,0,0,0,.667.667h9.333A.666.666,0,0,0,13.833,14V2a.666.666,0,0,0-.667-.667ZM5.833,6h5.333a.667.667,0,1,1,0,1.333H5.833A.667.667,0,1,1,5.833,6Zm0-2.667H8.5a.667.667,0,0,1,.471,1.138.642.642,0,0,1-.471.2H5.833a.667.667,0,0,1-.471-1.138A.642.642,0,0,1,5.833,3.333Z" transform="translate(14.5 370)"/></g></svg>