<svg xmlns="http://www.w3.org/2000/svg" xmlns:xlink="http://www.w3.org/1999/xlink" viewBox="0 0 16 16"><defs><style>.a,.c{fill:#fff;}.a{stroke:#707070;}.b{clip-path:url(#a);}</style><clipPath id="a"><rect class="a" width="16" height="16" transform="translate(15 294)"/></clipPath></defs><g class="b" transform="translate(-15 -294)"><path class="c" d="M9,1a7.823,7.823,0,0,1,3.111.634,7.863,7.863,0,0,1,4.256,4.256,7.953,7.953,0,0,1,0,6.221,7.863,7.863,0,0,1-4.256,4.256,7.953,7.953,0,0,1-6.221,0,7.863,7.863,0,0,1-4.256-4.256,7.953,7.953,0,0,1,0-6.221A7.863,7.863,0,0,1,5.889,1.633,7.823,7.823,0,0,1,9,1ZM9,2.454a6.39,6.39,0,0,0-2.543.52A6.434,6.434,0,0,0,2.974,6.457a6.479,6.479,0,0,0,0,5.085,6.434,6.434,0,0,0,3.483,3.483,6.479,6.479,0,0,0,5.085,0,6.434,6.434,0,0,0,3.483-3.483,6.479,6.479,0,0,0,0-5.085,6.434,6.434,0,0,0-3.483-3.483A6.39,6.39,0,0,0,9,2.454ZM9,3.909a.727.727,0,0,1,.727.727V8.7L11.7,10.664A.731.731,0,0,1,10.665,11.7L8.483,9.516A.7.7,0,0,1,8.273,9V4.636A.727.727,0,0,1,9,3.909Z" transform="translate(14 293)"/></g></svg>