<svg xmlns="http://www.w3.org/2000/svg" xmlns:xlink="http://www.w3.org/1999/xlink" viewBox="0 0 16 16"><defs><style>.a,.c{fill:#fff;}.a{stroke:#707070;}.b{clip-path:url(#a);}</style><clipPath id="a"><rect class="a" width="16" height="16" transform="translate(15 408)"/></clipPath></defs><g class="b" transform="translate(-15 -408)"><path class="c" d="M3.833,0H10.5l4.667,4.667V14a2,2,0,0,1-2,2H3.833a1.927,1.927,0,0,1-1.414-.586A1.927,1.927,0,0,1,1.833,14V2A1.927,1.927,0,0,1,2.419.586,1.927,1.927,0,0,1,3.833,0ZM9.166,6V1.333H3.833A.658.658,0,0,0,3.166,2V14a.658.658,0,0,0,.667.667h9.333A.658.658,0,0,0,13.833,14V6Zm4.115-1.333L10.5,1.885V4.667Z" transform="translate(14.5 408)"/></g></svg>