<svg xmlns="http://www.w3.org/2000/svg" xmlns:xlink="http://www.w3.org/1999/xlink" viewBox="0 0 16 16"><defs><style>.a,.c{fill:#fff;}.a{stroke:#707070;}.b{clip-path:url(#a);}</style><clipPath id="a"><rect class="a" width="16" height="16" transform="translate(15 180)"/></clipPath></defs><g class="b" transform="translate(-15 -180)"><path class="c" d="M3.182,2H14.818a2.1,2.1,0,0,1,1.543.639A2.1,2.1,0,0,1,17,4.182v7.273a2.182,2.182,0,0,1-2.182,2.182H13l-1.091-1.455h2.909a.727.727,0,0,0,.727-.727V4.182a.727.727,0,0,0-.727-.727H3.182a.727.727,0,0,0-.727.727v7.273a.727.727,0,0,0,.727.727H6.091L5,13.637H3.182A2.1,2.1,0,0,1,1.639,13,2.1,2.1,0,0,1,1,11.455V4.182a2.1,2.1,0,0,1,.639-1.543A2.1,2.1,0,0,1,3.182,2Zm7.273,13.091L9,13.154,7.545,15.091h2.909ZM4.636,16.546,9,10.727l4.364,5.818Z" transform="translate(14 178.727)"/></g></svg>