<svg xmlns="http://www.w3.org/2000/svg" viewBox="0 0 1397.61 1405.75"><defs><style>.cls-1{fill:#016d48;}.cls-2,.cls-3{fill:#fff;}.cls-3{opacity:0.3;}</style></defs><title>logo</title><g id="图层_2" data-name="图层 2"><g id="图层_1-2" data-name="图层 1"><circle class="cls-1" cx="698.8" cy="698.8" r="698.8" transform="translate(-289.45 698.8) rotate(-45)"/><path class="cls-2" d="M611.7,549c-24.65,0-31.79,6.86-35.75,8.5-7.11,3-9.91-21-1-26.5,23-5.25,49.5-4.42,65.16,12.6,4.64,5.05,4.81,9.06,3.47,11.68a65.09,65.09,0,0,0-14.7-4.65C625.39,549.4,621.51,549,611.7,549Z"/><path class="cls-2" d="M565.93,592.35C574,579,582,581.78,582.7,581.79c8.58,9.85,17.22,15.07,41,15.25,10,.08,20.61-13.71,43.18-2.32,0,0,25.32-32.18.87-72.71-24.83-24.83-70.31-19.22-95.28-9.64,19.29-67.26,68.74-84.46,125.57-84.51v358C625.89,785.63,564.13,694.11,565.93,592.35Z"/><path class="cls-1" d="M697.89,668.61c-19.7,0-35.67-14.52-35.67-21.33,0-4.74,7.73-1.86,19.08-3.92,5-.9,10.6,6.58,16.59,6.58Z"/><path class="cls-1" d="M697.89,694.61v37.33c-27.8,0-50.34-27.35-50.34-37.66S670.09,694.61,697.89,694.61Z"/><path class="cls-2" d="M784.23,549c24.65,0,31.79,6.86,35.75,8.5,7.11,3,9.91-21,1-26.5-23-5.25-49.5-4.42-65.16,12.6-4.64,5.05-4.81,9.06-3.47,11.68a64.93,64.93,0,0,1,14.7-4.65C770.54,549.4,774.42,549,784.23,549Z"/><path class="cls-2" d="M830,592.35c-8-13.31-16-10.57-16.77-10.56-8.58,9.85-6.33,11-29,11.25C741.17,569,733.47,605,729,612.72c0,0-.51,3.21-2.31.82-4.5-6-23-51,1.45-91.53,24.83-24.83,70.31-19.22,95.28-9.64-19.29-67.26-68.74-84.46-125.57-84.51v358C770,785.63,831.79,694.11,830,592.35Z"/><path class="cls-1" d="M697.89,668.61c19.71,0,35.68-14.52,35.68-21.33,0-4.74-7.74-1.86-19.08-3.92-5-.9-10.6,6.58-16.6,6.58Z"/><path class="cls-1" d="M697.89,731.94c27.81,0,50.34-27.35,50.34-37.66s-22.53.33-50.34.33"/><path class="cls-3" d="M754.29,1167.79c22.24,101.69,64.24,128.68,65.28,183.94.81,43.18,4.63,51-2,51"/><path class="cls-2" d="M756.73,1167.29c-6-67.81,89.43-124.8,89.39-202.71,1.72-52.59-64.24-104.67-68.8-128.68s-4.31-24-4.31-24a12,12,0,0,0-12-12s-45.73,11.71-63,11v591.81l122-.5c6.62,0,3.19-7.83,2-51C803.21,1245.91,774.58,1291.42,756.73,1167.29Z"/><path class="cls-2" d="M639.2,1167.29c6-67.81-89.43-124.8-89.39-202.71-1.72-52.59,64.24-104.67,68.8-128.68s4.31-24,4.31-24a12,12,0,0,1,12-12s45.73,11.71,63,11v591.81l-122-.5c-6.62,0-3.19-7.83-2-51C592.72,1245.91,621.35,1291.42,639.2,1167.29Z"/><path class="cls-2" d="M697.89,342.41c-36,1-71.43,5.44-71.43,5.44s-24.57-42-76.5-68.11c-42.57-23-94.07-23.89-94.07-23.89s19.23,31,32.65,60.17a339.2,339.2,0,0,1,18.35,50.83s-31-24.39-62.06-35.84c-31.4-11.55-61.94-9.16-61.94-9.16,52,71,78.81,127,78.81,127s118-53,236.19-53Z"/><path class="cls-2" d="M697.89,342.41c36,1,71.44,5.44,71.44,5.44s24.56-42,76.5-68.11c42.57-23,94.06-23.89,94.06-23.89s-19.22,31-32.64,60.17a339.94,339.94,0,0,0-18.36,50.83s31-24.39,62.07-35.84c31.39-11.55,61.93-9.16,61.93-9.16-52,71-78.8,127-78.8,127s-118-53-236.2-53Z"/><polygon class="cls-2" points="697.89 75.24 730.81 176.55 837.34 176.55 754.3 248.85 798.3 365.85 697.89 286.86 592.71 366.47 636.3 247.85 558.45 176.55 664.98 176.55 697.89 75.24"/><path class="cls-2" d="M935.25,978.85c0,86.53-88.19,122.47-81.5,205C893,1295.47,940.55,1354.69,926,1385c-15.76,32.82-52.67,16.82-52.67,16.82s4.36-26.39-11.12-68c-13.12-35.25-45-79.7-58.86-145.86-18.19-86.68,85-117.53,85-209.15,0-61.25-84.4-103.64-84-175.41.42-84.07,65.63-151,65.63-211.59,0-81.22-63.76-143-47.64-143,15.78,0,83.32,72.65,84.92,155,1.23,63.08-63.93,124.39-54.13,207.82C860,870.7,935.25,905.85,935.25,978.85Z"/><path class="cls-2" d="M1018.25,978.85c0,86.53-81.19,122.47-74.5,205C983.31,1280.28,1018.43,1340,1016,1348c-15.76,32.82-52.67,16.82-52.67,16.82s15.49,4.6,0-37c-13.11-35.24-51.11-73.69-65-139.85-18.19-86.68,80-117.53,80-209.15,0-61.25-84.4-103.64-84-175.41.42-84.07,42.63-133,42.63-193.59,0-81.22-76.76-150-60.64-150,15.78,0,90.32,72.65,91.92,155,1.23,63.08-33,103-37.13,195.82C938,869.7,1018.25,905.85,1018.25,978.85Z"/><path class="cls-2" d="M1085.34,982.84c2.46,12.51,70.46,45.51,109.46,47,1.73,11.3-.8,25-5.26,38.58-.16.49,12.24-.2,28.17,9.58,23.23,14.27,52.84,40.63,52.59,41.34-3.35,9.53-18.25,19.51-22.5,28-.31.63-26.48-24.75-46.9-37.64-15-9.44-25.9-7.54-26-7-4.1,20.19-15.71,27.24-18.1,30.19-33,18.5-130.92-41.31-135.5-60,42.5-85,30.14-78.26,30.14-100,0-61.26-40.14-55.65-77.05-137.42-25.09-70.23,18-121.2,22.64-181.58,7.88-101.77-73-162-56.86-162,15.78,0,79.87,75.7,81.47,158,1.22,63.07-16.34,61-26.46,154.76C1002.12,863.68,1085.8,902.85,1085.34,982.84Z"/><path class="cls-2" d="M997.25,1165.19c0,42.92,83.15,108.86,78,144-1,6.91-21,18.44-28.66,22,0,0-3-23.79-18.89-54.89-30.11-50.44-46.5-82.15-46.5-109.11,0-30.67,14-46,14-46S997.25,1113.83,997.25,1165.19Z"/><path class="cls-2" d="M458.85,978.85c0,86.53,88.19,122.47,81.5,205-39.22,111.61-86.8,170.83-72.22,201.17,15.77,32.82,52.67,16.82,52.67,16.82s-4.36-26.39,11.12-68c13.12-35.25,45-79.7,58.87-145.86,18.18-86.68-85-117.53-85-209.15,0-61.25,84.41-103.64,84-175.41-.42-84.07-65.63-151-65.64-211.59,0-81.22,63.76-143,47.64-143-15.78,0-83.32,72.65-84.92,155C485.66,666.89,550.81,728.2,541,811.63,534.07,870.7,458.85,905.85,458.85,978.85Z"/><path class="cls-2" d="M375.85,978.85c0,86.53,81.19,122.47,74.5,205C410.8,1280.28,375.67,1340,378.13,1348c15.77,32.82,52.67,16.82,52.67,16.82s-15.48,4.6,0-37c13.11-35.24,51.11-73.69,65-139.85,18.18-86.68-80-117.53-80-209.15,0-61.25,84.41-103.64,84.05-175.41-.42-84.07-42.63-133-42.64-193.59,0-81.22,76.76-150,60.64-150-15.78,0-90.32,72.65-91.92,155-1.22,63.08,33,103,37.13,195.82C456.07,869.7,375.85,905.85,375.85,978.85Z"/><path class="cls-2" d="M308.76,982.84c-2.46,12.51-70.46,45.51-109.46,47-1.73,11.3.8,25,5.27,38.58.16.49-12.25-.2-28.18,9.58-23.23,14.27-52.84,40.63-52.59,41.34,3.35,9.53,18.25,19.51,22.5,28,.31.63,26.48-24.75,46.91-37.64,14.95-9.44,25.9-7.54,26-7,4.09,20.19,15.7,27.24,18.09,30.19,33,18.5,130.93-41.31,135.5-60-42.5-85-30.14-78.26-30.14-100,0-61.26,40.14-55.65,77-137.42,25.09-70.23-18-121.2-22.63-181.58-7.89-101.77,73-162,56.85-162-15.77,0-79.86,75.7-81.46,158-1.23,63.07,16.33,61,26.45,154.76C392,863.68,308.3,902.85,308.76,982.84Z"/><path class="cls-2" d="M396.85,1165.19c0,42.92-83.15,108.86-78.05,144,1,6.91,21.05,18.44,28.67,22,0,0,3-23.79,18.88-54.89,30.12-50.44,46.5-82.15,46.5-109.11,0-30.67-14-46-14-46S396.85,1113.83,396.85,1165.19Z"/><path class="cls-2" d="M1188.25,618c-37-8.48-63.61,4.52-63.61,4.52s-28.58-39-60.53-72.47c-32.71-34.23-70.81-62.86-70.81-62.86s35.8-15.2,73.87-11.16c43.26,4.59,89.47,28.49,89.47,28.49s7.95-42.18,27.67-72c19.27-29.16,52.33-48,52.33-48s-5.34,58.67,27.1,137.26c34.15,74.22,99.68,144.62,99.68,144.62l-42.13,1.13S1224.64,621.86,1188.25,618Z"/><path class="cls-2" d="M1382,777.86s-21.28,6.16-49.44-4.71c-40.3-15.56-94.66-50.27-120.89-54.21-8.83-1.32-35.67,1.25-35.67,1.25l-24-56.33s33-2.21,43.84-.64c31,4.45,57.49,26.56,143.77,56.54l42.39,1.1Z"/><path class="cls-2" d="M1373.62,876.86s-10.2,8-37.26,1.29c-81.06-32.3-79.06-49.09-96.89-51.21-8.86-1.05-35.67-1.75-35.67-1.75l-12-51.33s22-1.21,32.84.35c31,4.46,26.5,20.57,112.77,50.55l43.21,1.1Z"/><path class="cls-2" d="M1343.46,976.86s9.79,6-17.27-.71c-48.89-15.3-52-38.09-69.89-40.21-8.86-1.05-42.66-7.75-42.66-7.75l-2-45.33s22-1.21,32.83.35c31,4.46,19.91,14,80.77,46.55l34.22,1.1Z"/><path class="cls-2" d="M1313.45,1073.55s7.94,6.19-15-2.32c-41.07-18.15-41.58-38.31-56.9-41.92-7.62-1.79-36.4-11-36.4-11l2.73-39.69s19.27,1.13,28.57,3.56c26.56,6.94,16,14.18,65.75,48.51l29.69,4.33Z"/><path class="cls-2" d="M1382,777.86a138.21,138.21,0,0,1-49.44-4.71c-54.56-16-94.66-50.27-120.89-54.21"/><path class="cls-2" d="M1247.73,1148.35s-31.09-28.07-52.09-41a25.71,25.71,0,0,0-19.1-3l13-35.92a31.71,31.71,0,0,1,21.37,4.09c23.95,14.45,59.82,44.91,59.82,44.91Z"/><path class="cls-2" d="M1191.73,1218.35s-12.09-26.07-33.09-39a41.82,41.82,0,0,0-19.1-6l17-27.92s3.71-1.35,14.37,5.09c23.95,14.45,42.82,38.91,42.82,38.91Z"/><polygon class="cls-2" points="1128.97 1273.85 1097.3 1234.85 1114.3 1216.01 1148.97 1250.01 1128.97 1273.85"/><path class="cls-2" d="M202.35,615.93c37-8.48,63.61,4.53,63.61,4.53s28.58-39.05,60.53-72.48c32.71-34.22,70.8-62.86,70.8-62.86S361.5,469.92,323.42,474c-43.26,4.59-89.46,28.5-89.46,28.5s-8-42.18-27.67-72c-19.27-29.16-52.33-48-52.33-48s5.33,58.66-27.1,137.26C92.71,593.93,27.17,664.33,27.17,664.33l42.13,1.13S166,619.79,202.35,615.93Z"/><path class="cls-2" d="M8.63,775.79s21.28,6.16,49.44-4.71c40.29-15.55,94.66-50.27,120.89-54.2,8.82-1.33,35.67,1.24,35.67,1.24l24-56.33s-33-2.2-43.84-.64c-31,4.46-57.5,26.56-143.77,56.54l-42.39,1.1Z"/><path class="cls-2" d="M17,874.79s10.2,8,37.27,1.29c81-32.29,79-49.08,96.89-51.2,8.86-1.06,35.66-1.76,35.66-1.76l12-51.33s-22-1.2-32.83.36c-31,4.46-26.5,20.56-112.77,50.54L10,823.79Z"/><path class="cls-2" d="M47.14,974.79s-9.8,6,17.27-.71c48.88-15.29,52.05-38.08,69.88-40.2,8.86-1.06,42.67-7.76,42.67-7.76l2-45.33s-22-1.2-32.84.36c-31,4.46-19.91,14-80.77,46.54l-34.21,1.1Z"/><path class="cls-2" d="M77.15,1071.48s-7.94,6.19,15-2.32c41.07-18.15,41.58-38.31,56.9-41.92,7.61-1.79,36.4-11,36.4-11l-2.74-39.68s-19.27,1.12-28.56,3.55c-26.57,6.94-16,14.18-65.75,48.52L58.67,1033Z"/><path class="cls-2" d="M8.63,775.79a138.21,138.21,0,0,0,49.44-4.71c54.56-16,94.66-50.27,120.89-54.2"/><path class="cls-2" d="M142.87,1146.28s31.08-28.07,52.08-41a25.71,25.71,0,0,1,19.11-3l-13-35.92a31.71,31.71,0,0,0-21.37,4.09c-23.95,14.45-59.82,44.91-59.82,44.91Z"/><path class="cls-2" d="M198.87,1216.28s12.08-26.07,33.08-39a41.78,41.78,0,0,1,19.11-6l-17-27.92s-3.71-1.35-14.37,5.09c-23.95,14.45-42.82,38.91-42.82,38.91Z"/><polygon class="cls-2" points="261.63 1271.79 293.29 1232.79 276.29 1213.94 241.63 1247.94 261.63 1271.79"/></g></g></svg>