<svg xmlns="http://www.w3.org/2000/svg" xmlns:xlink="http://www.w3.org/1999/xlink" viewBox="0 0 36 36">
  <defs>
    <style>
      .cls-1, .cls-3 {
        fill: #fff;
      }

      .cls-1 {
        stroke: #707070;
      }

      .cls-2 {
        clip-path: url(#clip-path);
      }
    </style>
    <clipPath id="clip-path">
      <rect id="矩形_6" data-name="矩形 6" class="cls-1" width="36" height="36"/>
    </clipPath>
  </defs>
  <g id="蒙版组_3" data-name="蒙版组 3" class="cls-2">
    <g id="Huione_pay_logo" data-name="Huione pay logo" transform="translate(1.588 2.647)">
      <g id="图层_1" data-name="图层 1">
        <path id="路径_3" data-name="路径 3" class="cls-3" d="M26.72,42.18h1.541l.826,2.067H27.747Z" transform="translate(-19.647 -31.015)"/>
        <path id="路径_4" data-name="路径 4" class="cls-3" d="M27.6,51.12h1.374l.76,2H28.328Z" transform="translate(-20.294 -37.588)"/>
        <path id="路径_5" data-name="路径 5" class="cls-3" d="M27.813,60.18s-.265,2.861-1.093,3.69h1.572a9.265,9.265,0,0,0,.794-3.69Z" transform="translate(-19.647 -44.25)"/>
        <path id="路径_6" data-name="路径 6" class="cls-3" d="M43.627,43.43H37.655v7.033a.794.794,0,0,0,.86.844h5.228v-.961H39.691s-.447.066-.447-.331V45l-.831-.831.847.169h4.368Z" transform="translate(-27.686 -31.934)"/>
        <path id="路径_7" data-name="路径 7" class="cls-3" d="M62.16,43.959v3.507h2.134v1.919s.1.564-.246.564h-.68v-2H62.16v2.681h1.191v.678h.956v-.826h.6s.545-.034.545-.77V46.622H63.386v-1.8h.876v1.374h1.191V43.959H64.278V43.43h-.926v.529Z" transform="translate(-45.706 -31.934)"/>
        <path id="路径_8" data-name="路径 8" class="cls-3" d="M75.83,44.14v.905h1.787v2.184H75.83v1.157h1.787v2.57H75.83v.871H81.1v-.8H79.115V48.386h1.633V47.316H78.983V45.861l-1.167-.926h2.912V44.14Z" transform="translate(-55.757 -32.456)"/>
        <path id="路径_9" data-name="路径 9" class="cls-3" d="M16.213,30.155a.376.376,0,1,0-.376-.376A.376.376,0,0,0,16.213,30.155Zm4.074-1.038a1.355,1.355,0,0,1-.323.127,3.378,3.378,0,0,0-.431.167h-.241l.021.058c.49-.019.4.585,1.08.529.233,0,.548-.056.781-.069.349-.021.431.146.646.244a3.37,3.37,0,0,0-1.5-.987,1.382,1.382,0,0,0-.349.034,3.607,3.607,0,0,1-.455.056l-.225.1v-.058c.445-.206.087-.7.709-.979.214-.1.514-.2.728-.3.32-.138.315-.326.458-.514a3.381,3.381,0,0,1-.884,1.564Zm1.747-.627a3.347,3.347,0,0,0,.678-1.662c-.124.2-.093.384-.394.561-.2.119-.479.265-.68.384-.585.349-.169.794-.582,1.059l.019.058.212-.127a4.551,4.551,0,0,0,.447-.109,1.2,1.2,0,0,1,.339-.079,3.284,3.284,0,0,1,1.615.794c-.225-.069-.326-.228-.67-.159-.228.045-.529.122-.762.169-.667.127-.659-.482-1.144-.4l-.026-.056.238-.045a3.568,3.568,0,0,1,.4-.217,1.154,1.154,0,0,0,.307-.169Zm1.654-.836a1.255,1.255,0,0,1-.283.206,1.443,1.443,0,0,1,.326-.124,3.348,3.348,0,0,1,1.7.582c-.233-.042-.352-.188-.68-.074-.225.074-.511.188-.736.265-.649.217-.715-.392-1.183-.265l-.037-.05.233-.079a4.07,4.07,0,0,1,.373-.265,3.29,3.29,0,0,1-.429.164l-.191.151-.024-.058c.376-.312-.093-.7.442-1.125.188-.146.445-.326.627-.466.265-.214.225-.394.315-.609a3.233,3.233,0,0,1-.453,1.736Zm1.533-1.04a3.317,3.317,0,0,0,.238-1.784c-.069.222,0,.4-.238.643-.164.167-.4.376-.566.545-.482.484.037.813-.3,1.17l.034.056.172-.175a2.83,2.83,0,0,0,.408-.22,3.327,3.327,0,0,0-.339.312l-.22.106.042.045c.447-.2.59.4,1.207.106.214-.1.49-.265.7-.352.315-.151.453-.024.686-.016a3.338,3.338,0,0,0-1.76-.36,1.276,1.276,0,0,0-.307.159,1.53,1.53,0,0,0,.244-.236Zm1.4-1.226a1.369,1.369,0,0,1-.225.265,2.986,2.986,0,0,0-.3.352l-.206.132.045.04c.418-.265.638.32,1.207-.05.2-.127.453-.31.651-.439.291-.191.442-.077.68-.1a3.314,3.314,0,0,0-1.792-.138,1.1,1.1,0,0,0-.283.2,4.168,4.168,0,0,1-.376.265l-.146.193-.037-.05c.289-.394-.265-.659.151-1.2.143-.185.347-.424.495-.606.214-.281.119-.434.154-.67a3.392,3.392,0,0,1-.021,1.795ZM27.842,24a1.2,1.2,0,0,1-.188.294,1.265,1.265,0,0,1,.265-.233,3.291,3.291,0,0,1,1.8-.087c-.228.045-.392-.04-.662.183-.18.151-.408.365-.59.529-.529.439-.81-.1-1.194.2l-.05-.034.188-.156a3.036,3.036,0,0,1,.265-.384,3.987,3.987,0,0,1-.357.31l-.124.209-.045-.045c.233-.429-.347-.622,0-1.207.119-.206.294-.466.413-.667.177-.3.058-.447.069-.68A3.19,3.19,0,0,1,27.847,24Zm1.043-1.535a3.368,3.368,0,0,0-.437-1.747c.024.233.156.365.019.686-.09.217-.233.5-.323.715-.265.625.334.744.154,1.2l.05.037.1-.222c.037-.061.172-.167.3-.352a1.2,1.2,0,0,1,.228-.265,3.225,3.225,0,0,1,1.771-.315c-.225.079-.4,0-.635.265-.161.175-.357.418-.529.585-.466.5-.818,0-1.157.349l-.056-.029.169-.177a4.114,4.114,0,0,1,.2-.416,1.4,1.4,0,0,0,.143-.307Zm.839-1.649a3.31,3.31,0,0,0-.649-1.678c.05.228.2.341.1.675-.064.225-.169.529-.233.752-.188.656.426.7.3,1.17l.056.032.064-.233a3.386,3.386,0,0,0,.251-.389,1.411,1.411,0,0,1,.191-.294,3.429,3.429,0,0,1,1.721-.529c-.212.106-.394.056-.6.344-.135.191-.3.458-.442.649-.4.553-.81.1-1.106.49l-.061-.024.143-.2a4.359,4.359,0,0,1,.146-.439.966.966,0,0,0,.114-.323Zm.627-1.747a3.372,3.372,0,0,0-.855-1.588c.077.225.244.315.188.662-.037.236-.1.529-.138.773-.1.678.508.641.447,1.125l.056.029.037-.244a3.483,3.483,0,0,0,.2-.416,2.835,2.835,0,0,0-.09.453l-.119.214.058.013c.244-.421.709-.026,1.032-.625.116-.206.249-.5.357-.7.164-.31.352-.283.548-.416a3.355,3.355,0,0,0-1.636.746,1.477,1.477,0,0,0-.156.31.929.929,0,0,0,.074-.341Zm.408-1.811a1.766,1.766,0,0,1-.169.794v.241l-.058-.019c0-.487-.6-.373-.585-1.059,0-.236.032-.548.034-.794,0-.352-.164-.421-.265-.63a3.36,3.36,0,0,1,1.059,1.459Zm.09.019a3.292,3.292,0,0,1,1.533-.948c-.177.156-.365.151-.49.479-.082.22-.177.529-.265.736-.246.638-.76.3-.948.752h-.064l.087-.228a1.681,1.681,0,0,1,.146-.794Zm.079-1.866A3.389,3.389,0,0,0,29.7,14.082c.132.2.31.244.347.6.024.233.037.548.058.794.069.678.654.49.715.974h.058l-.026-.244a1.62,1.62,0,0,0,.074-.794Zm.09,0a1.7,1.7,0,0,0-.045.794l-.061.236h.058c.132-.471.68-.2.844-.863.056-.228.114-.529.169-.765.082-.336.265-.365.426-.529a3.261,3.261,0,0,0-1.4,1.128Zm-.151-1.853a1.146,1.146,0,0,1,.064.344,1.371,1.371,0,0,1,.029-.347c.04-.344,1.059-1.273,1.244-1.3-.138.193-.318.238-.357.585-.029.233-.045.545-.074.781-.082.678-.659.482-.731.966h-.061l.029-.241a3.574,3.574,0,0,1-.082-.453,3.656,3.656,0,0,1-.032.461l.053.238h-.064c-.124-.471-.678-.214-.831-.876-.056-.23-.106-.529-.161-.768-.077-.344-.265-.368-.416-.545a3.254,3.254,0,0,1,1.39,1.151Zm-.3-1.829a3.333,3.333,0,0,0-1.514-.969c.18.156.363.161.484.49.082.22.175.529.265.741.238.641.754.315.937.768h.066l-.087-.228a3.489,3.489,0,0,0-.029-.463,1.429,1.429,0,0,1-.019-.347,3.353,3.353,0,0,1,1.075-1.445c-.109.212-.283.281-.265.627,0,.233.024.548.026.794,0,.683-.593.559-.6,1.059l-.058.019v-.244a3.833,3.833,0,0,1-.138-.439,1.509,1.509,0,0,0-.114-.334Zm-.529-1.781a1.173,1.173,0,0,1,.151.315,1.165,1.165,0,0,1-.058-.344,3.315,3.315,0,0,1,.881-1.567c-.082.22-.246.31-.2.659.032.233.09.529.122.77.093.678-.529.633-.466,1.117l-.058.024-.032-.244a3.391,3.391,0,0,1-.193-.421,2.819,2.819,0,0,1,.082.453l.114.214H30.33c-.238-.424-.709-.034-1.024-.643-.111-.212-.238-.495-.344-.7-.159-.312-.347-.294-.529-.426a3.4,3.4,0,0,1,1.617.794Zm-.741-1.7a3.311,3.311,0,0,0-1.71-.564c.212.111.394.066.59.352.132.193.3.463.429.654.389.564.81.116,1.1.508l.058-.024-.14-.2a3.44,3.44,0,0,0-.143-.437,4.256,4.256,0,0,0,.244.392l.064.238.056-.032c-.114-.476.5-.508.323-1.167-.058-.228-.159-.529-.22-.749-.09-.339.061-.447.116-.675A3.335,3.335,0,0,0,29.382,8.2a1.607,1.607,0,0,0,.1.334.993.993,0,0,0-.183-.291Zm-.945-1.588a1.249,1.249,0,0,1,.222.265,1.392,1.392,0,0,1-.14-.315A3.3,3.3,0,0,1,28.9,4.868c-.024.233-.161.363-.026.686.09.217.222.5.31.72.265.63-.347.739-.175,1.2l-.05.037-.09-.228c-.037-.061-.169-.169-.294-.357.119.191.156.357.2.416l.164.183-.056.029c-.334-.352-.7.14-1.151-.368-.156-.172-.352-.421-.508-.593-.233-.265-.408-.2-.63-.265a3.263,3.263,0,0,1,1.76.339ZM27.212,5.194a1.755,1.755,0,0,1,.265.238,3.089,3.089,0,0,0,.334.32l.119.214.045-.045c-.23-.429.357-.614.021-1.207-.114-.206-.283-.471-.4-.672-.172-.307-.053-.447-.058-.686a3.364,3.364,0,0,0-.244,1.784,1.424,1.424,0,0,0,.185.3,3.646,3.646,0,0,1,.246.389l.183.159-.05.037c-.379-.312-.672.228-1.189-.22-.18-.156-.4-.371-.582-.529-.265-.228-.429-.14-.656-.191a3.291,3.291,0,0,1,1.792.109Zm-1.324-1.3a1.17,1.17,0,0,1,.283.206,2.832,2.832,0,0,0,.371.265l.148.2.034-.05c-.278-.4.281-.654-.127-1.2-.14-.188-.341-.429-.479-.617-.212-.265-.111-.439-.143-.672a3.376,3.376,0,0,0-.019,1.8,1.17,1.17,0,0,0,.22.265,3.24,3.24,0,0,1,.294.357l.2.138-.045.04c-.416-.265-.641.312-1.207-.069-.2-.132-.447-.32-.641-.447-.291-.2-.442-.087-.675-.111a3.2,3.2,0,0,1,1.781-.109Zm-1.472-1.13a1.194,1.194,0,0,1,.307.169,4.015,4.015,0,0,0,.4.225l.169.177.032-.056c-.318-.365.2-.686-.267-1.159-.164-.169-.392-.386-.556-.553-.244-.265-.164-.421-.23-.651A3.339,3.339,0,0,0,24.485,2.7a1.244,1.244,0,0,0,.265.241,3.3,3.3,0,0,1,.334.315l.22.111-.042.045c-.442-.206-.593.389-1.207.082-.209-.106-.484-.265-.694-.365-.312-.156-.453-.032-.686-.024a3.311,3.311,0,0,1,1.768-.334Zm-1.588-.937a3.243,3.243,0,0,0-1.707.559c.233-.037.352-.177.686-.064.22.077.511.2.731.265.646.222.723-.384,1.183-.233l.037-.05-.233-.079a3.908,3.908,0,0,0-.371-.265,3.823,3.823,0,0,0,.426.175l.188.156.021-.061c-.371-.315.106-.7-.424-1.133-.183-.146-.439-.334-.622-.482-.265-.217-.214-.4-.307-.611a3.3,3.3,0,0,0,.434,1.747,1.413,1.413,0,0,0,.265.209,1.072,1.072,0,0,0-.318-.132Zm-1.466-.339A3.336,3.336,0,0,1,20.224.1c.175.156.2.344.529.426.228.056.529.109.768.164.662.161.4.715.868.842v.061l-.238-.058a1.824,1.824,0,0,1-.794-.048ZM18.49,29.515a3.377,3.377,0,0,0,1.072-1.445c-.169.164-.185.352-.529.447-.225.066-.529.138-.76.2-.654.193-.363.733-.829.884v.064l.233-.069a4.462,4.462,0,0,0,.463,0,3.6,3.6,0,0,0-.45.109h-.241v.058c.484.042.326.633,1.006.672.233.016.548.016.794.029.352.019.4.2.606.32a3.326,3.326,0,0,0-1.366-1.167,1.432,1.432,0,0,0-.349,0,1.588,1.588,0,0,0,.339-.087Zm-6.353-.384a1.371,1.371,0,0,0,.326.127,1.522,1.522,0,0,0-.349-.037,3.306,3.306,0,0,0-1.5.987c.214-.1.291-.265.646-.241.233.019.543.056.794.069.68.045.593-.564,1.08-.529l.021-.058-.241-.016a3.507,3.507,0,0,0-.431-.164,3.576,3.576,0,0,0,.458.056l.225.1v-.061c-.442-.2-.087-.7-.709-.977-.214-.1-.511-.206-.725-.3-.32-.138-.315-.326-.458-.514a3.254,3.254,0,0,0,.874,1.564Zm-1.747-.622a3.346,3.346,0,0,1-.678-1.665c.124.2.093.384.394.564.2.119.479.265.68.384.585.347.169.794.582,1.059l-.019.061-.212-.127c-.064-.029-.238-.034-.447-.111.209.082.344.193.408.214l.238.048-.029.053c-.479-.082-.471.529-1.144.4-.233-.045-.529-.122-.762-.169-.344-.069-.445.093-.667.161a3.355,3.355,0,0,1,1.612-.794,1.366,1.366,0,0,1,.339.077,1.218,1.218,0,0,1-.3-.159Zm-1.654-.842a3.475,3.475,0,0,1-.461-1.736c.1.214.042.392.315.606.183.143.445.326.627.469.529.421.069.813.442,1.125l-.021.058-.193-.151A3.018,3.018,0,0,1,9,27.874a1.324,1.324,0,0,0-.326-.124,3.324,3.324,0,0,0-1.7.582c.233-.042.352-.188.68-.074.225.074.511.188.736.265.649.214.715-.392,1.183-.265l.037-.05-.233-.077a4.071,4.071,0,0,0-.373-.265,1.21,1.21,0,0,1-.286-.206ZM7.2,26.624a3.305,3.305,0,0,1-.238-1.781c.069.222,0,.4.238.643.164.164.4.376.566.545.482.484-.037.813.3,1.17l-.034.056-.172-.175a1.673,1.673,0,0,1-.659-.458Zm-.056.079a1.808,1.808,0,0,1,.651.471l.22.1-.042.048c-.447-.2-.59.4-1.207.1-.214-.1-.49-.265-.7-.352-.315-.151-.453-.021-.686-.013a3.339,3.339,0,0,1,1.763-.36ZM5.8,25.412a1.308,1.308,0,0,0,.225.265,2.986,2.986,0,0,1,.3.352l.206.132L6.48,26.2c-.418-.251-.635.32-1.207-.045-.2-.13-.453-.312-.651-.439-.291-.193-.442-.079-.68-.1a3.314,3.314,0,0,1,1.792-.138,1,1,0,0,1,.283.2,4.392,4.392,0,0,0,.376.265l.146.2.037-.05c-.289-.394.265-.659-.151-1.2-.143-.188-.347-.424-.5-.606-.214-.281-.119-.437-.154-.67A3.414,3.414,0,0,0,5.8,25.4Zm-1.226-1.4a3.312,3.312,0,0,1,.217-1.787c0,.233-.111.379.066.68.119.2.294.463.413.667.341.59-.238.794,0,1.207l-.045.048L5.1,24.612a3.941,3.941,0,0,1-.334-.315,3.6,3.6,0,0,1,.251.384l.188.156-.05.037c-.384-.3-.667.236-1.194-.2-.183-.151-.41-.368-.588-.529-.265-.222-.431-.135-.664-.183a3.4,3.4,0,0,1,1.8.087,1.34,1.34,0,0,1,.265.233A1.114,1.114,0,0,1,4.587,24Zm-1.043-1.53a1.292,1.292,0,0,0,.154.315,3.2,3.2,0,0,1,.2.416l.167.177L4,23.416c-.344-.349-.7.151-1.157-.349-.161-.172-.363-.416-.529-.585-.238-.265-.413-.188-.635-.265a3.3,3.3,0,0,1,1.768.315,1.694,1.694,0,0,1,.23.265,3.531,3.531,0,0,0,.3.352l.1.225.05-.04c-.177-.453.421-.572.156-1.2-.093-.214-.233-.5-.326-.712-.138-.32,0-.453.019-.688a3.267,3.267,0,0,0-.445,1.744Zm-.839-1.657a3.378,3.378,0,0,1,.649-1.678c-.05.23-.2.344-.1.683.064.222.169.529.233.749.188.659-.426.7-.307,1.17l-.053.032-.066-.233a3.386,3.386,0,0,1-.251-.389,3.463,3.463,0,0,1,.148.434l.14.2-.058.021c-.3-.386-.709.066-1.106-.487-.138-.193-.307-.458-.445-.651-.2-.289-.384-.238-.593-.341a3.443,3.443,0,0,1,1.718.529,1.35,1.35,0,0,1,.193.291,1.472,1.472,0,0,1-.1-.334ZM2.062,19.08a1.4,1.4,0,0,0,.056.344,1.273,1.273,0,0,0-.156-.312,3.292,3.292,0,0,0-1.636-.744c.2.127.384.1.548.416.111.206.244.49.357.7.326.6.794.2,1.032.627h.061L2.2,19.893a3.309,3.309,0,0,0-.087-.461c.074.214.18.347.2.416l.037.244.053-.026c-.058-.487.553-.45.45-1.125-.037-.233-.1-.529-.138-.773-.056-.349.109-.439.188-.659a3.3,3.3,0,0,0-.847,1.572Zm-.4-1.811a3.356,3.356,0,0,1,1.059-1.464c-.106.212-.281.283-.265.633,0,.233.032.548.034.781.019.68-.585.572-.585,1.059l-.058.019v-.244a3.441,3.441,0,0,1-.146-.437,4.566,4.566,0,0,1,.037.461l.087.23H1.736c-.185-.447-.7-.114-.945-.749-.087-.22-.183-.529-.265-.736C.4,16.491.214,16.5.037,16.34a3.359,3.359,0,0,1,1.53.948,1.408,1.408,0,0,1,.116.328,1.2,1.2,0,0,1-.024-.347Zm-.175-1.853a3.426,3.426,0,0,1,1.226-1.324c-.132.2-.31.241-.347.593-.024.233-.037.551-.058.794-.069.667-.654.492-.717.977H1.53l.026-.241a3.126,3.126,0,0,1-.087-.453,1.324,1.324,0,0,0-.071-.344A3.237,3.237,0,0,0,0,14.294c.159.175.344.2.426.529.053.23.114.529.169.765.164.662.712.392.844.863H1.5l-.058-.238a3.229,3.229,0,0,0,.021-.461,1.215,1.215,0,0,1,.019-.344Zm.066-1.853A3.306,3.306,0,0,1,2.93,12.409c-.156.18-.339.2-.416.545-.05.228-.106.529-.159.768-.156.664-.709.408-.834.879H1.459l.056-.238a2.772,2.772,0,0,1-.032-.463,4.45,4.45,0,0,1-.082.453l.026.244H1.366c-.066-.484-.649-.286-.731-.964C.609,13.4.59,13.084.561,12.851.529,12.5.344,12.46.206,12.266a3.336,3.336,0,0,1,1.244,1.3,1.361,1.361,0,0,1,.026.347,1.17,1.17,0,0,1,.074-.341Zm.3-1.826a1.358,1.358,0,0,0-.109.328,1.429,1.429,0,0,0,.019-.347A3.457,3.457,0,0,0,.678,10.273c.109.212.283.281.265.627,0,.233-.024.548-.026.794,0,.683.593.559.6,1.059l.058.019v-.244a3.833,3.833,0,0,0,.138-.439,3.3,3.3,0,0,0-.026.463L1.6,12.78h.064c.188-.471.717-.146.95-.786.082-.22.175-.529.251-.741.119-.328.307-.334.484-.49a3.348,3.348,0,0,0-1.509.974Zm.529-1.779a3.3,3.3,0,0,1,1.623-.773c-.2.132-.379.111-.529.426-.1.209-.236.492-.341.7-.315.6-.794.214-1.024.643H2.049l.116-.214a4.235,4.235,0,0,1,.082-.453,3.391,3.391,0,0,1-.193.421l-.032.241-.058-.021c.021-.5-.588-.453-.5-1.138.034-.233.093-.543.124-.773.05-.347-.114-.437-.2-.656a3.337,3.337,0,0,1,.881,1.567,1.276,1.276,0,0,1-.058.344.982.982,0,0,1,.146-.326Zm.741-1.7a1.342,1.342,0,0,0-.212.291,3.865,3.865,0,0,1-.244.394L2.6,9.18l-.053-.032c.114-.474-.5-.506-.326-1.165.058-.228.159-.529.22-.754.1-.347-.064-.447-.109-.678a3.357,3.357,0,0,1,.68,1.665,1.5,1.5,0,0,1-.106.334c-.1.206-.109.376-.143.439l-.14.2.058.019c.289-.394.709.05,1.1-.508.132-.191.3-.461.429-.654.2-.289.381-.246.59-.352a3.285,3.285,0,0,0-1.7.564Zm.95-1.588a3.224,3.224,0,0,1,1.766-.341c-.22.082-.4.013-.63.265-.156.172-.352.418-.508.593-.458.508-.818,0-1.154.365l-.053-.026.164-.183a2.814,2.814,0,0,1,.2-.416,2.912,2.912,0,0,1-.291.355l-.122.236-.05-.037c.169-.458-.429-.566-.175-1.2.087-.22.225-.5.312-.717.132-.323,0-.453-.026-.686a3.343,3.343,0,0,1,.466,1.736,1.181,1.181,0,0,1-.143.318,1.151,1.151,0,0,1,.22-.265ZM5.212,5.209A3.3,3.3,0,0,1,7,5.09c-.228.05-.392-.037-.656.191-.18.156-.4.371-.582.529-.516.447-.807-.093-1.189.22L4.5,5.985l.188-.159a3.645,3.645,0,0,1,.246-.389,1.421,1.421,0,0,0,.183-.3,3.368,3.368,0,0,0-.241-1.784c0,.238.114.379-.061.686-.114.206-.283.466-.4.672-.334.593.251.778.024,1.207l.045.045L4.6,5.752a3.071,3.071,0,0,0,.334-.32A1.853,1.853,0,0,1,5.186,5.2ZM6.536,3.9a1.445,1.445,0,0,0-.283.2,4.278,4.278,0,0,1-.371.265l-.148.2L5.7,4.516c.265-.4-.281-.654.127-1.2.143-.188.344-.429.479-.617.212-.281.111-.439.143-.672a3.349,3.349,0,0,1,.019,1.8,1.17,1.17,0,0,1-.22.265,3.049,3.049,0,0,0-.294.355l-.2.135.045.04c.41-.265.641.312,1.207-.069.2-.132.447-.32.641-.447.291-.2.442-.087.675-.111a3.333,3.333,0,0,0-1.781-.1Zm1.472-1.13A3.336,3.336,0,0,1,9.776,3.1c-.236,0-.373-.132-.686.024-.209.1-.479.265-.694.365-.614.3-.765-.289-1.207-.082l-.042-.045.22-.111c.061-.04.156-.183.334-.315a4.016,4.016,0,0,1-.4.225l-.169.177L7.1,3.288c.315-.376-.214-.691.257-1.17.164-.169.392-.384.556-.553.244-.265.164-.421.23-.649A3.329,3.329,0,0,1,7.928,2.7a1.432,1.432,0,0,1-.251.244,1.12,1.12,0,0,1,.307-.169ZM9.6,1.834a3.389,3.389,0,0,1,1.713.553c-.236-.037-.355-.177-.688-.064-.22.077-.511.2-.731.265-.646.225-.723-.384-1.183-.233l-.037-.05L8.9,2.229a4.14,4.14,0,0,1,.371-.265,1.414,1.414,0,0,0,.257-.212A3.319,3.319,0,0,0,9.971,0c-.09.214-.032.392-.3.611-.185.146-.439.331-.622.482-.529.429-.056.813-.426,1.133l.024.058.185-.154a4.452,4.452,0,0,0,.437-.169,1.234,1.234,0,0,1,.328-.132ZM11.065,1.5a1.66,1.66,0,0,1-.794.04l-.238.061V1.533c.471-.13.206-.683.868-.842.217-.056.521-.114.746-.161.341-.082.365-.265.529-.426A3.18,3.18,0,0,1,11.044,1.5ZM13.924,29.52a3.238,3.238,0,0,1-1.059-1.445c.167.164.183.352.529.447.225.064.529.138.76.206.654.191.363.731.829.881v.064l-.233-.069a3.8,3.8,0,0,1-.463,0,1.109,1.109,0,0,0-.347,0,3.321,3.321,0,0,0-1.366,1.165c.2-.124.265-.3.606-.32.233,0,.551,0,.794-.026.68-.042.529-.633,1.006-.672l.013-.061-.244.016a3.37,3.37,0,0,0-.447-.111,1.562,1.562,0,0,1-.347-.09Z"/>
        <path id="路径_10" data-name="路径 10" class="cls-3" d="M63.2,10.89v1.554s5.461.49,7.984,4.5c2.854,4.54,2.512,8.455.559,11.877a16.361,16.361,0,0,1-8.831,7.094h0a12.527,12.527,0,0,0,11.912-12.51A12.369,12.369,0,0,0,63.2,10.89Z" transform="translate(-46.257 -8.007)"/>
        <path id="路径_11" data-name="路径 11" class="cls-3" d="M26.178,35.9V34.341s-5.458-.49-7.984-4.5c-2.851-4.54-2.509-8.455-.556-11.877a16.416,16.416,0,0,1,8.833-7.094h0A12.528,12.528,0,0,0,14.56,23.385,12.352,12.352,0,0,0,26.178,35.9Z" transform="translate(-10.706 -7.993)"/>
      </g>
    </g>
  </g>
</svg>
