<svg xmlns="http://www.w3.org/2000/svg" viewBox="0 0 112 31"><defs><style>.a{fill:#f2f6fc;}.b,.d{fill:#409eff;}.b{font-size:14px;font-family:PingFangSC-Medium, PingFang SC;font-weight:500;}.c,.d{stroke:none;}</style></defs><g transform="translate(-1027 -424)"><g class="a" transform="translate(6975 424)"><path class="c" d="M -5844.99951171875 30.74996948242188 L -5944 30.74996948242188 C -5946.06787109375 30.74996948242188 -5947.75048828125 29.06746864318848 -5947.75048828125 26.99939727783203 L -5947.75048828125 4.000569343566895 C -5947.75048828125 1.932498097419739 -5946.06787109375 0.249998077750206 -5944 0.249998077750206 L -5844.99951171875 0.249998077750206 C -5842.93212890625 0.249998077750206 -5841.25 1.932498097419739 -5841.25 4.000569343566895 L -5841.25 9.999940872192383 C -5841.24853515625 11.40152645111084 -5840.70166015625 12.7190408706665 -5839.7109375 13.71005535125732 C -5839.109375 14.31147575378418 -5838.388671875 14.74917030334473 -5837.6025390625 15.00072383880615 C -5839.71484375 15.68139266967773 -5841.24853515625 17.66584587097168 -5841.25 19.999755859375 L -5841.25 26.99939727783203 C -5841.25 29.06746864318848 -5842.93212890625 30.74996948242188 -5844.99951171875 30.74996948242188 Z"/><path class="d" d="M -5844.99951171875 30.49996948242188 C -5843.06982421875 30.49996948242188 -5841.5 28.92962646484375 -5841.5 26.99939727783203 L -5841.5 19.99961280822754 C -5841.4990234375 17.78634643554688 -5840.18212890625 15.87305927276611 -5838.291015625 15.00136947631836 C -5838.87744140625 14.73196983337402 -5839.41748046875 14.35719203948975 -5839.8876953125 13.88682651519775 C -5840.92578125 12.84866905212402 -5841.49853515625 11.46846961975098 -5841.5 9.999940872192383 L -5841.5 4.000569343566895 C -5841.5 2.070340871810913 -5843.06982421875 0.4999980628490448 -5844.99951171875 0.4999980628490448 L -5944 0.4999980628490448 C -5945.93017578125 0.4999980628490448 -5947.50048828125 2.070340871810913 -5947.50048828125 4.000569343566895 L -5947.50048828125 26.99939727783203 C -5947.50048828125 28.92962646484375 -5945.93017578125 30.49996948242188 -5944 30.49996948242188 L -5844.99951171875 30.49996948242188 M -5844.99951171875 30.99996948242188 L -5944 30.99996948242188 C -5946.20947265625 30.99996948242188 -5948.00048828125 29.20866966247559 -5948.00048828125 26.99939727783203 L -5948.00048828125 4.000569343566895 C -5948.00048828125 1.791298031806946 -5946.20947265625 -1.926749064296018e-06 -5944 -1.926749064296018e-06 L -5844.99951171875 -1.926749064296018e-06 C -5842.79150390625 -1.926749064296018e-06 -5841 1.791298031806946 -5841 4.000569343566895 L -5841 9.999940872192383 C -5840.99853515625 11.3344554901123 -5840.47900390625 12.58836936950684 -5839.5341796875 13.53328418731689 C -5838.587890625 14.4796838760376 -5837.333984375 14.99916934967041 -5836.0009765625 14.99916934967041 C -5838.75830078125 15.00215530395508 -5840.99853515625 17.24427032470703 -5841 19.9998836517334 L -5841 26.99939727783203 C -5841 29.20866966247559 -5842.79150390625 30.99996948242188 -5844.99951171875 30.99996948242188 Z"/></g><text class="b" transform="translate(1041 444)"><tspan x="0" y="0">账号密码登录</tspan></text></g></svg>