<svg xmlns="http://www.w3.org/2000/svg" viewBox="0 0 81.999 31"><defs><style>.a{fill:#f2f6fc;}.b,.d{fill:#409eff;}.b{font-size:14px;font-family:PingFangSC-Medium, PingFang SC;font-weight:500;}.c,.d{stroke:none;}</style></defs><g transform="translate(-1057 -389)"><g class="a" transform="translate(6975 389)"><path class="c" d="M -5845 30.74955558776855 L -5914.00048828125 30.74955558776855 C -5916.06787109375 30.74955558776855 -5917.75 29.06744575500488 -5917.75 26.99985694885254 L -5917.75 3.999701023101807 C -5917.75 1.932112097740173 -5916.06787109375 0.2500009834766388 -5914.00048828125 0.2500009834766388 L -5845 0.2500009834766388 C -5842.93212890625 0.2500009834766388 -5841.25 1.932112097740173 -5841.25 3.999701023101807 L -5841.25 10.00000095367432 C -5841.24853515625 11.40191173553467 -5840.70166015625 12.71943473815918 -5839.7109375 13.71014499664307 C -5839.10986328125 14.31155109405518 -5838.38916015625 14.74923419952393 -5837.60302734375 15.00079154968262 C -5839.71533203125 15.68126773834229 -5841.24853515625 17.66511535644531 -5841.25 19.99837875366211 L -5841.25 26.99985694885254 C -5841.25 29.06744575500488 -5842.93212890625 30.74955558776855 -5845 30.74955558776855 Z"/><path class="d" d="M -5845 30.49955558776855 C -5843.0703125 30.49955558776855 -5841.5 28.92960166931152 -5841.5 26.99985694885254 L -5841.5 19.99824523925781 C -5841.4990234375 17.78556060791016 -5840.18212890625 15.87287330627441 -5838.29150390625 15.00141620635986 C -5838.87744140625 14.73201942443848 -5839.41748046875 14.3572883605957 -5839.8876953125 13.8869457244873 C -5840.92578125 12.84908962249756 -5841.49853515625 11.46886730194092 -5841.5 10.00000095367432 L -5841.5 3.999701023101807 C -5841.5 2.069956541061401 -5843.0703125 0.5000009536743164 -5845 0.5000009536743164 L -5914.00048828125 0.5000009536743164 C -5915.93017578125 0.5000009536743164 -5917.5 2.069956541061401 -5917.5 3.999701023101807 L -5917.5 26.99985694885254 C -5917.5 28.92960166931152 -5915.93017578125 30.49955558776855 -5914.00048828125 30.49955558776855 L -5845 30.49955558776855 M -5845 30.99955558776855 L -5914.00048828125 30.99955558776855 C -5916.208984375 30.99955558776855 -5918 29.20986747741699 -5918 26.99985694885254 L -5918 3.999701023101807 C -5918 1.791178703308105 -5916.208984375 9.697807854536222e-07 -5914.00048828125 9.697807854536222e-07 L -5845 9.697807854536222e-07 C -5842.79150390625 9.697807854536222e-07 -5841 1.791178703308105 -5841 3.999701023101807 L -5841 10.00000095367432 C -5840.99853515625 11.3337345123291 -5840.47900390625 12.5887451171875 -5839.5341796875 13.53334522247314 C -5838.58837890625 14.4794340133667 -5837.3330078125 14.9992561340332 -5836.0009765625 14.9992561340332 C -5838.7587890625 15.00223445892334 -5840.99853515625 17.24343490600586 -5841 19.99851226806641 L -5841 20.00000190734863 L -5841 26.99985694885254 C -5841 29.20986747741699 -5842.79150390625 30.99955558776855 -5845 30.99955558776855 Z"/></g><text class="b" transform="translate(1068 409)"><tspan x="0" y="0">扫码登录</tspan></text></g></svg>