<svg xmlns="http://www.w3.org/2000/svg" viewBox="0 0 135.45 28"><defs><style>.cls-1,.cls-2{fill:#fff;}.cls-2{font-size:18px;font-family:Futura-MediumItalic, Futura;font-style:italic;}.cls-3{letter-spacing:-0.04em;}</style></defs><title>logo</title><g id="图层_2" data-name="图层 2"><g id="图层_1-2" data-name="图层 1"><g id="图层_2-2" data-name="图层 2"><g id="图层_1-2-2" data-name="图层 1-2"><path class="cls-1" d="M9.58,10.27s0,0,.05.06a3.22,3.22,0,0,1,.38.35,1.72,1.72,0,0,1,.25.35,1.11,1.11,0,0,1,.14.54v4.15a.41.41,0,0,0,.42.39c.08,0,3.66,0,3.71,0v.79h0s-4.64,0-4.79,0a1.11,1.11,0,0,1-.37-.15A.82.82,0,0,1,9,16.21c0-.12,0-6.37,0-6.43h5.48v.87s-2.21,0-3.24,0a2.76,2.76,0,0,1-1-.16,4.87,4.87,0,0,1-.53-.21H9.59Z"/><path class="cls-1" d="M14.92,10.31H16V9.83a7.29,7.29,0,0,1,.81,0,3.52,3.52,0,0,1,0,.46s1,0,1,0,0,2,0,2.06h-1V11.12a5.61,5.61,0,0,0-.82,0s0,1.58,0,1.62a6.46,6.46,0,0,0,.78,0h1.08v2.41a2.12,2.12,0,0,1,0,.44.94.94,0,0,1-.1.28.73.73,0,0,1-.42.37,1.25,1.25,0,0,1-.37.09.17.17,0,0,0-.12,0V17c-.07,0-.73,0-.79,0a.08.08,0,0,1,0-.08v-.52h-1a.2.2,0,0,1-.11,0c0-.09,0-1.46,0-2.33V14h1.11v1.68h.55a.27.27,0,0,0,.26-.25.82.82,0,0,0,0-.22V13.59s-1.55,0-1.82,0H15V10.44A.16.16,0,0,1,14.92,10.31Z"/><path class="cls-1" d="M19.84,13.64H18.38v-.85h1.34a.28.28,0,0,0,.13,0V11a.28.28,0,0,1,0-.13h0a3.76,3.76,0,0,1,.66.17,1.63,1.63,0,0,1,.34.19.75.75,0,0,1,.31.57v.84a.21.21,0,0,0,0,.11h1.5a.67.67,0,0,1,0,.2v.64H21.36a.27.27,0,0,0-.13,0v2.45H23v.78H18.17v-.78h1.55a.15.15,0,0,0,.13,0v-2.3A.62.62,0,0,0,19.84,13.64Z"/><path class="cls-1" d="M8.44,13.82a8.3,8.3,0,0,1-.16,1.5,8.61,8.61,0,0,1-.57,1.85H6.36s0-.05,0-.08.15-.3.22-.46A9.68,9.68,0,0,0,7,15.46a9.71,9.71,0,0,0,.26-1.19c0-.12,0-.24,0-.36a.15.15,0,0,1,0-.09H8.44Z"/><path class="cls-1" d="M22.84,9.89a5.47,5.47,0,0,1,0,.81.06.06,0,0,1-.06,0h-4.5V9.89h4.56Z"/><path class="cls-1" d="M8.44,13.38H7.2c0-.08-.37-1.08-.4-1.18s-.22-.46-.25-.56H7.76A5.3,5.3,0,0,1,8.44,13.38Z"/><path class="cls-1" d="M7.16,11.22c0-.14-.09-.29-.14-.44s-.11-.3-.17-.43-.12-.28-.19-.42-.13-.28-.2-.42l0,0H7.63a.08.08,0,0,1,.08,0l.17.31a6.43,6.43,0,0,1,.51,1.32v.05H7.16Z"/><path class="cls-1" d="M15.54,24.85l.07,0a10.48,10.48,0,0,0,1.4-.56,16,16,0,0,0,3-1.86A14.13,14.13,0,0,0,21.49,21a12.28,12.28,0,0,0,1.64-2.09A9.56,9.56,0,0,0,24,17.31a9.75,9.75,0,0,0,.73-2.95,9.89,9.89,0,0,0,0-1.44,9.41,9.41,0,0,0-.13-1.19,9.84,9.84,0,0,0-.51-1.86,9.94,9.94,0,0,0-3.37-4.46A9.87,9.87,0,0,0,17.85,3.9a9.47,9.47,0,0,0-1.46-.37,6.06,6.06,0,0,0-.73-.09l-.2,0V2.1a.17.17,0,0,1,.14,0l.44,0c.33,0,.66.09,1,.16a9.83,9.83,0,0,1,1.5.42l.79.31a10.58,10.58,0,0,1,1.29.68,11.35,11.35,0,0,1,5,6.56,9.32,9.32,0,0,1,.31,1.29,11.67,11.67,0,0,1,.15,2.5c0,.33,0,.66-.1,1a11,11,0,0,1-.34,1.61A11.63,11.63,0,0,1,25.16,18a12.4,12.4,0,0,1-.73,1.4A11.42,11.42,0,0,1,19,24a11.74,11.74,0,0,1-1.34.46c-.42.11-.85.2-1.28.27A7.89,7.89,0,0,1,15.54,24.85Z"/><path class="cls-1" d="M13.84,2.11l-.08.05-1.24.46c-.33.13-.65.28-1,.43a14.84,14.84,0,0,0-2,1.15,12.13,12.13,0,0,0-2.28,2,10.42,10.42,0,0,0-2.19,4.11,11.47,11.47,0,0,0-.3,1.55,10.7,10.7,0,0,0-.1,1.5,11.14,11.14,0,0,0,0,1.16,10.13,10.13,0,0,0,3.86,6.94,10.42,10.42,0,0,0,1.48,1,10.24,10.24,0,0,0,1.85.75c.36.1.71.18,1.07.25s.55.08.83.11h.14v1.3s0,0-.08,0-.3,0-.47,0l-.66-.1L12,24.55a9.07,9.07,0,0,1-.89-.26,8.68,8.68,0,0,1-.94-.37,9.67,9.67,0,0,1-1.46-.77,11.38,11.38,0,0,1-2.6-2.24A11.56,11.56,0,0,1,4.8,19.08a10.43,10.43,0,0,1-.74-1.59c-.11-.29-.2-.59-.29-.89a9.36,9.36,0,0,1-.26-1.14,7.4,7.4,0,0,1-.12-.93c0-.31-.05-.64-.05-1a7.88,7.88,0,0,1,.05-1.07c0-.26,0-.51.09-.76a9.37,9.37,0,0,1,.21-1.08A11.38,11.38,0,0,1,4.1,9.37a11.72,11.72,0,0,1,2-3.3A11.39,11.39,0,0,1,9.29,3.44a10.27,10.27,0,0,1,1.39-.64,10.45,10.45,0,0,1,1.08-.35l.75-.17c.34-.07.69-.12,1-.16l.31,0Z"/><path class="cls-1" d="M3,9.81l-.11.07a.64.64,0,0,0-.31.39c-.06.19-.13.39-.2.58a1.47,1.47,0,0,1-.1.22.58.58,0,0,1-.29.22l-.19.06a.43.43,0,0,0-.27.21l0,0h0l0-.11a.62.62,0,0,0,0-.33l-.06.15a.31.31,0,0,0,0,.13v.15h0s0,0,0,0a.41.41,0,0,0-.17-.27l-.15-.14a.6.6,0,0,1-.24-.48v-.18l0-.5V9.85a.51.51,0,0,0-.11-.31L.64,9.42a0,0,0,0,0,0,0s0,0,.05,0A2.65,2.65,0,0,1,1,9.67a4,4,0,0,1,.46.62l.07.14a.55.55,0,0,1,.07.28v.09s0,0,0,0a.77.77,0,0,1,.27-.35A3.68,3.68,0,0,1,2.44,10l.34-.17.12,0H3Z"/><path class="cls-1" d="M26.41,9.79a.41.41,0,0,1,.19.05,4.6,4.6,0,0,1,.93.56l.09.08a.85.85,0,0,1,.17.25l0,.09s0,0,0,0a.69.69,0,0,1,.13-.44,3.92,3.92,0,0,1,.51-.7l.23-.23.06,0v.05l-.1.13a.48.48,0,0,0-.1.29V10c0,.19,0,.39,0,.58v.21a.51.51,0,0,1-.15.31l-.13.11-.11.08a.45.45,0,0,0-.14.24l0,.08,0,0v0a.68.68,0,0,0-.12-.38h0a0,0,0,0,0,0,0,.56.56,0,0,0,.05.34v.05h0s0,0,0,0a.42.42,0,0,0-.23-.18l-.2-.06a.54.54,0,0,1-.28-.19.64.64,0,0,1-.1-.18c-.07-.17-.12-.34-.18-.51l-.08-.2a.55.55,0,0,0-.25-.31l-.11-.07Z"/><path class="cls-1" d="M23,25.78l-.08,0-.06,0a.61.61,0,0,0-.46,0l-.4.15L21.8,26a.64.64,0,0,1-.24,0,.48.48,0,0,1-.26-.07l-.11-.06-.12-.08a.4.4,0,0,0-.28-.07.12.12,0,0,1-.08,0s0,0,0,0l.11,0a.58.58,0,0,0,.23-.18.66.66,0,0,0-.27.09l-.1.08a0,0,0,0,1,0,0v0l0,0a.49.49,0,0,0,.1-.27v-.2a.58.58,0,0,1,.21-.49l.34-.26.26-.19a.64.64,0,0,0,.23-.33.75.75,0,0,1,0-.16s0,0,0,0a1.18,1.18,0,0,1,0,.26,4.3,4.3,0,0,1-.26,1,.64.64,0,0,1-.24.32l0,0h.06a.82.82,0,0,1,.41,0l.46.13a4.35,4.35,0,0,1,.59.25A.48.48,0,0,1,23,25.78Z"/><path class="cls-1" d="M11.13,26.59l0,0a.72.72,0,0,1-.35-.29,4,4,0,0,1-.51-1c0-.05,0-.1-.05-.15s0,0,0,0l.07.12a.59.59,0,0,0,.29.27l.38.15.31.13a.56.56,0,0,1,.36.44.83.83,0,0,0,0,.15.4.4,0,0,0,.19.28s0,0,0,.05l-.14-.05a.35.35,0,0,0-.14,0h-.17a.67.67,0,0,0,.43.12v.05h0a.4.4,0,0,0-.3.17l-.11.13a.6.6,0,0,1-.5.2c-.18,0-.37,0-.55-.05a.9.9,0,0,1-.23,0,.59.59,0,0,0-.31.09l-.16.1s0,0,0,0l.29-.25a3.61,3.61,0,0,1,.66-.44l.12-.06a.57.57,0,0,1,.31-.06h.08Z"/><path class="cls-1" d="M25.1,20.28a.82.82,0,0,1,.1.24,5.66,5.66,0,0,1,.12.81,1.4,1.4,0,0,1,0,.29.5.5,0,0,1-.07.27L25.2,22s0,0,0,0l.07-.05a.45.45,0,0,1,.23-.11,2.74,2.74,0,0,1,.5-.07h.52l.26,0a.11.11,0,0,1,.08,0s0,0,0,0h-.1a.59.59,0,0,0-.4.15l-.27.24-.25.22a1,1,0,0,1-.24.15.57.57,0,0,1-.29,0l-.2,0a.47.47,0,0,0-.33,0h0a0,0,0,0,1,0,0v0l0,0a.81.81,0,0,0,.24-.31s0,0,0,0l0,.05a.48.48,0,0,0-.19.21.21.21,0,0,1,0,.06s0,0,0,0v0a.43.43,0,0,0,0-.35c0-.06,0-.11-.07-.17a.54.54,0,0,1,0-.43c.06-.11.12-.22.18-.31l.24-.39a.52.52,0,0,0,.1-.45A.29.29,0,0,1,25.1,20.28Z"/><path class="cls-1" d="M2.54,7.92a.54.54,0,0,0-.16.26.32.32,0,0,1,0,.09l0,0h0v0a.47.47,0,0,0-.12-.36l-.1-.13A.57.57,0,0,1,2,7.32c0-.08,0-.16.07-.25s.09-.33.14-.49a.56.56,0,0,0,0-.42A.61.61,0,0,0,2.11,6V6a.35.35,0,0,1,.11.13,4,4,0,0,1,.31.66,2.47,2.47,0,0,1,.1.29.75.75,0,0,1,0,.51v0l0,0a.69.69,0,0,1,.38-.29A4,4,0,0,1,4.16,7a.17.17,0,0,1,.1,0s0,0,0,0l-.16,0a.49.49,0,0,0-.26.21,2.2,2.2,0,0,0-.17.25L3.4,7.9a.73.73,0,0,1-.14.16A.44.44,0,0,1,3,8.17H2.75a.44.44,0,0,0-.31.13s0,0-.07,0a.41.41,0,0,1,0-.09A.59.59,0,0,0,2.54,7.92Z"/><path class="cls-1" d="M5.84,1.88a.89.89,0,0,0,0,.14,2.84,2.84,0,0,1,0,.42,4.21,4.21,0,0,1,0,.71v.07a.66.66,0,0,1-.13.31l0,0s0,0,0,0l.08,0a.58.58,0,0,1,.21-.07,2.62,2.62,0,0,1,.56,0,4.38,4.38,0,0,1,.62.08.66.66,0,0,1,.2.06s0,0,0,0H7.29a.56.56,0,0,0-.36.1L6.59,4l-.28.19a.56.56,0,0,1-.56.06l-.18-.06a.42.42,0,0,0-.31,0H5.19l0,0,.08-.06a.49.49,0,0,0,.13-.12s.06-.08.1-.14a.23.23,0,0,0-.12.06l-.1.07A.27.27,0,0,0,5.23,4s0,.07-.09.09v0s0,0,0,0a.41.41,0,0,0,0-.31L5.11,3.5a.54.54,0,0,1,.08-.41l.18-.25.28-.35,0-.07a.61.61,0,0,0,.11-.35V1.92C5.81,1.86,5.81,1.87,5.84,1.88Z"/><path class="cls-1" d="M11.41,28a.16.16,0,0,1,.05-.11,4.13,4.13,0,0,1,.91-.81.59.59,0,0,1,.31-.12l.1,0-.1,0a.41.41,0,0,1-.2-.12,1.34,1.34,0,0,1-.2-.21,4.2,4.2,0,0,1-.53-.79.61.61,0,0,1-.05-.12s0,0,0,0,0,0,0,0l.08.11a.57.57,0,0,0,.33.22l.47.13.24.07a.6.6,0,0,1,.4.36l.07.19a.41.41,0,0,0,.22.23l0,0v0l-.11,0a.41.41,0,0,0-.22,0h-.13s0,0,0,0l.16.05h.22s0,0,.05,0l-.07,0a.46.46,0,0,0-.24.17l-.11.16a.58.58,0,0,1-.5.27l-.6,0h-.13a.52.52,0,0,0-.35.14Z"/><path class="cls-1" d="M2.47,21.83a.39.39,0,0,1,.14,0,5.34,5.34,0,0,1,.8,0l.36,0a.64.64,0,0,1,.36.17l0,0s0,0,0-.05a.76.76,0,0,1-.11-.44,5.43,5.43,0,0,1,.1-.81c0-.11,0-.21.08-.31a.22.22,0,0,1,0-.11s0,0,0,0l0,.16a.54.54,0,0,0,.06.31c.07.13.15.25.23.38l.15.25.06.1a.58.58,0,0,1,0,.43c0,.07-.05.13-.07.19s0,.08,0,.12a.26.26,0,0,0,0,.21s0,.05,0,.07v0a.21.21,0,0,1-.08-.11.69.69,0,0,0-.23-.22.64.64,0,0,0,.09.21l.17.16h0a.09.09,0,0,1-.06,0,.42.42,0,0,0-.27,0l-.2,0a.58.58,0,0,1-.52-.12c-.12-.11-.25-.22-.37-.31L3,22a.67.67,0,0,0-.41-.16A.45.45,0,0,1,2.47,21.83Z"/><path class="cls-1" d="M24.49,24.62l-.14,0a.62.62,0,0,0-.46.06L23.3,25l-.05,0a.57.57,0,0,1-.54,0l-.11-.06a.46.46,0,0,0-.38-.05,0,0,0,0,1,0,0v0a.37.37,0,0,1,.14-.07.38.38,0,0,0,.12-.1.4.4,0,0,0,.1-.12.76.76,0,0,0-.28.15l-.08.08,0,0v-.05s0,0,0-.06a.3.3,0,0,0,0-.16v-.39a.51.51,0,0,1,.13-.37l.25-.25.31-.31L23,23.1a.71.71,0,0,0,.09-.28.28.28,0,0,1,0-.13.16.16,0,0,1,0,.12v.43a3.4,3.4,0,0,1-.09.64.8.8,0,0,1-.05.21.64.64,0,0,1-.14.22.22.22,0,0,0-.05.08l.07,0a.66.66,0,0,1,.34-.06,3.52,3.52,0,0,1,.65.1,3.27,3.27,0,0,1,.53.17Z"/><path class="cls-1" d="M7.26,24.8c-.08-.05-.12-.13-.2-.17l-.18-.08s0,0,0,0l.12.12.15.09a.06.06,0,0,1,.07.05s0,0,0,0h0a.39.39,0,0,0-.3,0L6.7,25a.47.47,0,0,1-.15.06.42.42,0,0,1-.27,0A1.66,1.66,0,0,1,6,24.91l-.5-.26a.64.64,0,0,0-.41,0l-.18,0,0,0a1.89,1.89,0,0,1,.21-.09,3.69,3.69,0,0,1,.93-.21h.28a.23.23,0,0,1,.14,0l.14,0-.07-.07A.66.66,0,0,1,6.39,24a3.15,3.15,0,0,1-.09-.42,6.3,6.3,0,0,1,0-.75v-.12a.08.08,0,0,1,0-.05.16.16,0,0,1,0,.09.72.72,0,0,0,.25.51c.15.14.31.28.45.43a.61.61,0,0,1,.18.31.81.81,0,0,1,0,.31.52.52,0,0,1,0,.17.42.42,0,0,0,.07.24l0,0Z"/><path class="cls-1" d="M8.81,24.49a.14.14,0,0,1,0,.06l.05.11a.62.62,0,0,0,.24.29l.45.25.21.12a.57.57,0,0,1,.31.47.55.55,0,0,0,0,.18.39.39,0,0,0,.15.27,0,0,0,0,1,0,.06h0s0,0-.05,0a.74.74,0,0,0-.36-.12h0a.86.86,0,0,0,.2.13,2,2,0,0,0,.23.06s0,0,0,0a.51.51,0,0,0-.42.19l-.06.05a.57.57,0,0,1-.53.13l-.5-.11-.24,0a.53.53,0,0,0-.37,0L8,26.73s0,0,0-.05a2.31,2.31,0,0,1,.36-.25,6.63,6.63,0,0,1,.59-.31L9.13,26a.65.65,0,0,1,.28,0,.17.17,0,0,0,.1,0s0,0-.06-.05a.61.61,0,0,1-.23-.25A2.45,2.45,0,0,1,9,25.2a3.54,3.54,0,0,1-.18-.55c0-.06,0-.12,0-.18Z"/><path class="cls-1" d="M3.23,20.63a.58.58,0,0,0,0-.14.63.63,0,0,1,0-.19,2,2,0,0,1,.06-.43,4.47,4.47,0,0,1,.25-.81s0-.09.07-.13h0a.12.12,0,0,1,0,.08s0,.06,0,.09a.53.53,0,0,0,0,.41c.06.15.13.31.2.45a2.72,2.72,0,0,0,.11.25.58.58,0,0,1-.05.51l-.07.12,0,.11a.3.3,0,0,0,0,.23v.08l0,0a.09.09,0,0,1,0-.06.67.67,0,0,0-.22-.28h0a.58.58,0,0,0,.05.14.41.41,0,0,0,.08.13.69.69,0,0,1,.11.13H3.59s0,0,0,0a.31.31,0,0,0-.21-.06H3.11A.59.59,0,0,1,2.56,21c-.14-.14-.27-.3-.4-.45l-.11-.12a.57.57,0,0,0-.34-.18l-.14,0h0l.05,0a3,3,0,0,1,.6,0l.48.1.11,0a.8.8,0,0,1,.4.25Z"/><path class="cls-1" d="M27.94,15.87s0,0,0-.07a.63.63,0,0,1,.2-.28,2.76,2.76,0,0,1,.39-.28,5.12,5.12,0,0,1,.62-.31.48.48,0,0,1,.17,0s0,0,0,0L29.2,15a.5.5,0,0,0-.25.3l-.12.34c0,.11-.09.22-.13.34a.3.3,0,0,1,0,.08.55.55,0,0,1-.37.31l-.17.05a.41.41,0,0,0-.26.2s0,.05-.05,0a.19.19,0,0,1,0-.07.86.86,0,0,0,.05-.39.2.2,0,0,0-.05.09.46.46,0,0,0-.06.28v.07h0v0a.4.4,0,0,0-.14-.26l-.15-.12a.57.57,0,0,1-.23-.51c0-.15,0-.3,0-.45V15a.55.55,0,0,0-.12-.39,1.13,1.13,0,0,0-.1-.13s0,0,.05,0,.09.07.12.11a4.19,4.19,0,0,1,.66.86l.06.12a.59.59,0,0,1,.05.23v.11Z"/><path class="cls-1" d="M26.59,19.79l0,0a0,0,0,0,1,0,0,.43.43,0,0,0-.1-.34l-.1-.14a.57.57,0,0,1-.09-.51l.12-.42.09-.26,0-.16a.57.57,0,0,0,0-.29.47.47,0,0,1-.06-.15,0,0,0,0,1,0,0c.05.08.1.16.14.24a4.09,4.09,0,0,1,.31.75,1.1,1.1,0,0,1,.06.26A.45.45,0,0,1,27,19a.59.59,0,0,0,0,.13l0,0a.85.85,0,0,1,.41-.31,5.54,5.54,0,0,1,.69-.22l.31-.05a.24.24,0,0,1,.12,0h0a.21.21,0,0,1-.11,0,.65.65,0,0,0-.43.31c-.1.16-.21.31-.31.46l-.08.11a.57.57,0,0,1-.44.23h-.16a.45.45,0,0,0-.35.13s0,0-.05,0a1.18,1.18,0,0,0,.11-.19,1.42,1.42,0,0,0,.07-.22l0,0-.09.13a.75.75,0,0,0-.06.13C26.62,19.73,26.62,19.77,26.59,19.79Z"/><path class="cls-1" d="M19.86,26.06H20a.66.66,0,0,1,.34,0,2.83,2.83,0,0,1,.4.17,4.82,4.82,0,0,1,.63.35.36.36,0,0,1,.09.08s0,0,0,0a.51.51,0,0,1-.15-.07.56.56,0,0,0-.42-.05l-.51.11-.25.05a.56.56,0,0,1-.45-.12l-.13-.11-.08-.07a.45.45,0,0,0-.25-.09h-.06s0,0,0,0a.11.11,0,0,1,.08,0,1,1,0,0,0,.31-.15s-.08,0-.1,0h-.09a.11.11,0,0,0-.08,0l-.08,0-.09.05v0s0,0,0,0a.4.4,0,0,0,.14-.27.47.47,0,0,1,0-.17.75.75,0,0,1,.09-.29.8.8,0,0,1,.21-.2l.43-.24.21-.12a.63.63,0,0,0,.28-.34s0-.07,0-.11,0,0,0,0v.08a3.92,3.92,0,0,1-.16.56,3.7,3.7,0,0,1-.24.54l-.07.13A.58.58,0,0,1,20,26,.18.18,0,0,0,19.86,26.06Z"/><path class="cls-1" d="M27.09,8.3a.05.05,0,0,1,0,0,.29.29,0,0,1,0-.09A.48.48,0,0,0,27,8l-.1-.14V8a.62.62,0,0,0,.12.26l0,.06a0,0,0,0,1,0,0l-.07-.06a.28.28,0,0,0-.17-.07l-.22,0A.62.62,0,0,1,26,7.89l-.26-.4L25.6,7.3A.61.61,0,0,0,25.24,7l-.11,0,0,0a.22.22,0,0,1,.16,0,3.39,3.39,0,0,1,.61.15,3.7,3.7,0,0,1,.5.19.67.67,0,0,1,.27.23s0,0,.06,0v0a.82.82,0,0,1,0-.44,3.9,3.9,0,0,1,.31-.8A2.61,2.61,0,0,1,27.17,6a.1.1,0,0,1,0,0s0,0,0,0l0,.08a.56.56,0,0,0,0,.44c0,.12.07.25.11.37s.07.25.1.38a.58.58,0,0,1-.11.49l-.1.13a.45.45,0,0,0-.11.34A.1.1,0,0,0,27.09,8.3Z"/><path class="cls-1" d="M2.82,19.81l0,0v-.07a.63.63,0,0,0-.17-.31h0a.79.79,0,0,0,.06.22.82.82,0,0,0,.12.2h0l-.07,0a.34.34,0,0,0-.19-.09H2.18a.54.54,0,0,1-.39-.19l-.14-.18-.31-.45a.59.59,0,0,0-.41-.33l-.1,0,0,0a.28.28,0,0,1,.13,0,4.36,4.36,0,0,1,.78.17c.13,0,.25.09.37.15a.66.66,0,0,1,.29.23s0,.05.06.06v-.05a.75.75,0,0,1,0-.47,4.26,4.26,0,0,1,.44-1l.06-.08,0,0s0,0,0,0a.79.79,0,0,1-.05.13.58.58,0,0,0,0,.41l.13.42c0,.08.05.17.08.25l0,.15a.53.53,0,0,1-.07.35L3,19.34l-.08.1a.48.48,0,0,0-.08.31A.14.14,0,0,1,2.82,19.81Z"/><path class="cls-1" d="M27.46,9.49v.08a.61.61,0,0,0,.08.27l0,.06v0a.08.08,0,0,1-.05,0,.42.42,0,0,0-.31-.18.65.65,0,0,1-.19,0,.49.49,0,0,1-.35-.24l-.18-.32-.18-.4a.65.65,0,0,0-.31-.3l-.14-.08s0,0,0,0l.26.07a5,5,0,0,1,.82.37l.11.07a.72.72,0,0,1,.25.27l0,.05h0s0,0,0,0a.64.64,0,0,1,.06-.43,4.12,4.12,0,0,1,.33-.62A3.28,3.28,0,0,1,28,7.69l.08-.08s0,0,0,0L28,7.78a.57.57,0,0,0-.07.34,2.63,2.63,0,0,0,.06.39l.06.4a.49.49,0,0,1,0,.24.57.57,0,0,1-.15.26l-.13.13a.5.5,0,0,0-.14.31.12.12,0,0,1,0,.06s0,0,0,0a.11.11,0,0,1,0-.08.79.79,0,0,0-.12-.3h0Z"/><path class="cls-1" d="M16.61,27h.09a.57.57,0,0,1,.31.1,3.29,3.29,0,0,1,.59.47,4.27,4.27,0,0,1,.36.38L18,28h0l-.09-.07a.63.63,0,0,0-.41-.17h-.62l-.21,0a.52.52,0,0,1-.29-.18l-.12-.18a.48.48,0,0,0-.31-.23s0,0,0-.05a.81.81,0,0,0,.22,0,.83.83,0,0,0,.21-.06.34.34,0,0,0-.22,0,.79.79,0,0,0-.22.05s0,0,0-.05l0,0a.43.43,0,0,0,.13-.14l.05-.13.06-.13a.56.56,0,0,1,.37-.35L17,26l.27-.07a.6.6,0,0,0,.34-.24l.07-.1s0,0,0,0a.12.12,0,0,1,0,.1,2.86,2.86,0,0,1-.24.42,4.62,4.62,0,0,1-.37.5,1.14,1.14,0,0,1-.11.11.66.66,0,0,1-.29.17l-.09,0Z"/><path class="cls-1" d="M2,9.18l.06-.1a.5.5,0,0,1,.15-.17l.26-.17a5,5,0,0,1,.92-.38h.12l0,0-.13.07a.53.53,0,0,0-.27.24L3,9c-.05.1-.1.21-.16.31a1,1,0,0,1-.12.19.53.53,0,0,1-.28.18l-.19,0-.11,0a.42.42,0,0,0-.21.13l0,0h0v0l0-.07a.51.51,0,0,0,.06-.25V9.45l0,.06a.66.66,0,0,0-.13.36v0h0s0,0,0,0a.41.41,0,0,0-.15-.33l-.12-.12a.58.58,0,0,1-.16-.47,2.9,2.9,0,0,1,.06-.41l.06-.39a.52.52,0,0,0-.08-.36l-.06-.11,0-.06s0,0,0,0l.18.21a4,4,0,0,1,.44.81s0,.07,0,.1A.65.65,0,0,1,2,9.15v0Z"/><path class="cls-1" d="M.21,11.18l.07,0a3.62,3.62,0,0,1,.42.36,3.42,3.42,0,0,1,.44.49.71.71,0,0,1,.16.39v.05l0-.05A.73.73,0,0,1,1.56,12a4.53,4.53,0,0,1,.82-.64l.17-.09h0l-.07.07a.7.7,0,0,0-.31.49c0,.21-.08.41-.13.62a.63.63,0,0,1-.09.24.59.59,0,0,1-.26.21L1.59,13a.37.37,0,0,0-.23.23s0,0-.05,0v-.07a.73.73,0,0,0,0-.36h0s0,0,0,0a.69.69,0,0,0,0,.35v.05l0,0,0,0A.38.38,0,0,0,1,13L.87,12.9a.63.63,0,0,1-.33-.53L.48,11.7a.61.61,0,0,0-.17-.39A.26.26,0,0,1,.21,11.18Z"/><path class="cls-1" d="M1.94,17.84A.46.46,0,0,0,2,18a.42.42,0,0,0,0,.1l.06.13H2l0,0a.42.42,0,0,0-.31-.18H1.55a.58.58,0,0,1-.43-.28l-.18-.36a2.89,2.89,0,0,1-.15-.31.65.65,0,0,0-.34-.31l-.09-.05,0,0s0,0,0,0a.8.8,0,0,1,.21.05,4.71,4.71,0,0,1,.89.39l.13.08a.58.58,0,0,1,.18.2.39.39,0,0,0,.08.1v-.12a.7.7,0,0,1,0-.29,3.23,3.23,0,0,1,.31-.65c.08-.13.17-.26.26-.38A.47.47,0,0,1,2.59,16V16a.41.41,0,0,1,0,.09.62.62,0,0,0-.07.48c0,.22.07.43.11.62v.24a.47.47,0,0,1-.11.26l-.1.11-.1.12a.36.36,0,0,0-.11.25v.07s0,0,0,0a.43.43,0,0,1,0-.11A.72.72,0,0,0,2,17.84h0v0Z"/><path class="cls-1" d="M7.49,23.67l0,0a.53.53,0,0,0,0,.12.63.63,0,0,0,.22.34l.35.26c.12.09.18.12.26.19a.61.61,0,0,1,.21.33v.32a.45.45,0,0,0,.11.31,0,0,0,0,1,0,0v0h0l-.07-.05a.64.64,0,0,0-.34-.14.72.72,0,0,0,.29.2h0s.06,0,.05,0,0,0-.06,0a.48.48,0,0,0-.31.08l-.15.1a.67.67,0,0,1-.23.1.66.66,0,0,1-.34,0l-.4-.14-.24-.08a.54.54,0,0,0-.43,0,.42.42,0,0,1-.16,0l.05-.05.36-.18a3.61,3.61,0,0,1,.72-.25l.17,0a.55.55,0,0,1,.31,0,.09.09,0,0,0,.07,0l0,0a.66.66,0,0,1-.24-.33,3.51,3.51,0,0,1-.21-.72l-.06-.35v-.19Z"/><path class="cls-1" d="M3.18,4.46a.67.67,0,0,1,.09.14c.06.15.12.31.17.47a4,4,0,0,1,.14.57v.15a.54.54,0,0,1-.05.28.13.13,0,0,1,0,.06s0,0,0,0A.79.79,0,0,1,4,5.87a3.91,3.91,0,0,1,.76-.14,2.17,2.17,0,0,0,.36,0h.08s0,0,0,0L5,5.77A.55.55,0,0,0,4.72,6l-.31.38-.15.18a.64.64,0,0,1-.58.22H3.53a.41.41,0,0,0-.28.09l0,0s0,0,0,0,0,0,0,0a.87.87,0,0,0,.2-.35v0l0,0-.1.1a.46.46,0,0,0-.09.15.36.36,0,0,1,0,.09l0,0v-.1a.34.34,0,0,0,0-.26L3,6.28a.64.64,0,0,1,0-.6l.13-.31.15-.32a.61.61,0,0,0,0-.42l0-.17Z"/><path class="cls-1" d="M25.35,5.38l-.14-.21L25,5a.17.17,0,0,0,0,.1l.05.08a.35.35,0,0,0,.05.08l.07.06.06.06s0,0,0,0h0a.45.45,0,0,0-.34,0l-.14,0a.59.59,0,0,1-.55-.15l-.44-.4-.11-.1a.55.55,0,0,0-.38-.15h-.14s0,0,0,0a1.55,1.55,0,0,1,.37,0,4.79,4.79,0,0,1,.85,0l.15,0a.57.57,0,0,1,.22.11l.08.06s0,0,0,0l0-.06a.64.64,0,0,1-.08-.3,2.63,2.63,0,0,1,.05-.57,4.74,4.74,0,0,1,.1-.49,1.87,1.87,0,0,1,.07-.22l0-.06v.06a.59.59,0,0,1,0,.13.53.53,0,0,0,.09.35c.09.15.18.29.26.44l.14.23a.7.7,0,0,1,.06.35.9.9,0,0,1-.06.22L25.37,5a.39.39,0,0,0,0,.3,0,0,0,0,1,0,.05Z"/><path class="cls-1" d="M24.19,21.54l0,0a3.18,3.18,0,0,1,.06.43v.59a2.91,2.91,0,0,1,0,.31.47.47,0,0,1-.11.25s0,0-.05.08,0,0,.05,0a.68.68,0,0,1,.44-.12,4.36,4.36,0,0,1,1.08.11l.16.05s0,0,0,0h-.1a.63.63,0,0,0-.46.12l-.48.33-.17.1a.53.53,0,0,1-.46,0l-.17-.06a.43.43,0,0,0-.35,0h-.05s0,0,.06-.05a.72.72,0,0,0,.24-.25v0a.69.69,0,0,0-.33.28s0,0,0,0h0a.41.41,0,0,0,0-.37.57.57,0,0,0,0-.14.58.58,0,0,1,.11-.55l.31-.38a2.09,2.09,0,0,1,.14-.17,1.19,1.19,0,0,0,.09-.15.43.43,0,0,0,.06-.22v-.21Z"/><path class="cls-1" d="M19.19,25.14a.46.46,0,0,1-.05.21,5.11,5.11,0,0,1-.48.93l-.08.1a.67.67,0,0,1-.25.19.05.05,0,0,0-.06,0c0,.05.05,0,.07,0a.71.71,0,0,1,.35.07,4.6,4.6,0,0,1,.6.37,2.79,2.79,0,0,1,.42.35l.05.07h-.05l-.11-.08a.59.59,0,0,0-.39-.1l-.5.05h-.34a.46.46,0,0,1-.36-.17L17.9,27,17.8,27a.31.31,0,0,0-.2-.09l-.06,0s0,0,0,0a.81.81,0,0,0,.27,0l.17-.08a.55.55,0,0,0-.31,0l-.1,0a0,0,0,0,1,0,0v0h0a.44.44,0,0,0,.19-.29l.06-.2a.55.55,0,0,1,.33-.37l.28-.12.36-.15.13-.06a.49.49,0,0,0,.22-.23A.62.62,0,0,1,19.19,25.14Z"/><path class="cls-1" d="M20.89,1.65l-.07,0a.58.58,0,0,1-.18-.26,2.46,2.46,0,0,1-.16-.48,4.94,4.94,0,0,1-.12-.67V0l.05.07,0,.14a.53.53,0,0,0,.18.28l.31.25.26.2a.69.69,0,0,1,.19.19.57.57,0,0,1,.08.28v.22a.41.41,0,0,0,.12.33.06.06,0,0,1,0,.06l-.18-.13a.73.73,0,0,0-.24-.07.83.83,0,0,0,.26.19l.09,0,.06,0-.05,0h0a.48.48,0,0,0-.35.07l-.12.1a.6.6,0,0,1-.55.06L20,2.13l-.19-.07a.68.68,0,0,0-.4,0,.48.48,0,0,1-.17,0s.05,0,.08-.07a3,3,0,0,1,.41-.18c.17-.07.34-.12.52-.18l.18,0a.81.81,0,0,1,.41,0A.06.06,0,0,0,20.89,1.65Z"/><path class="cls-1" d="M23,3l-.07-.05a.6.6,0,0,0-.3-.19v0l.07.08a.45.45,0,0,0,.17.13l.1,0,0,0h0a.36.36,0,0,0-.25,0l-.13.06-.13.06a.56.56,0,0,1-.44,0L21.51,3l-.34-.18a.6.6,0,0,0-.35,0l-.19,0v0l.25-.1a5.66,5.66,0,0,1,.91-.19H22a.66.66,0,0,1,.2.06l.1,0V2.51a.66.66,0,0,1-.19-.36c0-.14-.06-.28-.08-.42A4.51,4.51,0,0,1,22,1V.89a.06.06,0,0,1,0,0,.35.35,0,0,1,0,.14.59.59,0,0,0,.07.26l.12.16.47.45a.43.43,0,0,1,.11.12.57.57,0,0,1,.11.38.77.77,0,0,1,0,.15v.12a.42.42,0,0,0,.07.29S23,3,23,3Z"/><path class="cls-1" d="M8.51,1.68l.11,0a.65.65,0,0,1,.31,0,3.33,3.33,0,0,1,.6.16,3.25,3.25,0,0,1,.54.23l.09,0,0,0h-.06l-.11,0a.55.55,0,0,0-.4,0l-.48.18-.2.08a.85.85,0,0,1-.22,0,.56.56,0,0,1-.33-.1l-.14-.12a.44.44,0,0,0-.33-.08s0,0-.06,0,0,0,.06,0a.69.69,0,0,0,.3-.21l-.14,0a.37.37,0,0,0-.14.07L7.82,2s0,0,0,0h0a.43.43,0,0,0,.12-.31V1.48A.58.58,0,0,1,8.14,1L8.36.82,8.69.57A.64.64,0,0,0,9,.13.32.32,0,0,1,9,0S9,0,9,0V.08A2.4,2.4,0,0,1,9,.36a4.52,4.52,0,0,1-.16.73,2.25,2.25,0,0,1-.08.24.66.66,0,0,1-.2.27A.35.35,0,0,0,8.51,1.68Z"/><path class="cls-1" d="M27.33,18.26l.07-.14a.83.83,0,0,0,0-.15.38.38,0,0,0,0-.15.81.81,0,0,0-.15.31.29.29,0,0,1,0,.09,0,0,0,0,0,0,0s0-.06,0-.08a.35.35,0,0,0-.08-.22L27,17.81l-.12-.13a.63.63,0,0,1-.1-.29,1.55,1.55,0,0,1,0-.31l.09-.5a1,1,0,0,0,0-.17.45.45,0,0,0-.05-.25L26.83,16s0,0,0-.05l.06.07c.07.1.15.2.22.31a3.42,3.42,0,0,1,.39.73.86.86,0,0,1,.05.42s0,0,0,0,0,0,0,0a.87.87,0,0,1,.33-.33,4.34,4.34,0,0,1,.7-.3l.31-.1a.17.17,0,0,1,.14,0l0,0-.12.05a.57.57,0,0,0-.28.27c-.09.17-.17.31-.25.49s-.07.13-.1.2a.58.58,0,0,1-.46.3l-.15,0a.4.4,0,0,0-.28.16Z"/><path class="cls-1" d="M28.08,14.48c0,.1,0,.17-.06.25A1.61,1.61,0,0,0,28,15s0,0,0,0v0a.37.37,0,0,0-.15-.2l-.08-.06-.12-.07a.59.59,0,0,1-.28-.46,5.09,5.09,0,0,0,0-.55l0-.21a.5.5,0,0,0-.14-.31l-.1-.11,0-.05h.06l.13.1a4.15,4.15,0,0,1,.69.7l.07.09a.88.88,0,0,1,.15.39v0h0v0a.88.88,0,0,1,.21-.36,4.31,4.31,0,0,1,.62-.51l.37-.22h0l0,0-.09.08a.61.61,0,0,0-.23.37c0,.15-.07.31-.11.46a.87.87,0,0,1-.05.22.49.49,0,0,1-.18.32l-.16.1-.16.07a.41.41,0,0,0-.24.24l0,0h0s0,0,0,0a.5.5,0,0,1,0-.12A.63.63,0,0,0,28.08,14.48Z"/><path class="cls-1" d="M1.3,14.19v-.08a.56.56,0,0,1,.1-.29l.13-.18A4.31,4.31,0,0,1,2.2,13l.13-.09h0v0L2.26,13a.5.5,0,0,0-.15.32c0,.15,0,.29,0,.44a1.35,1.35,0,0,1,0,.31.56.56,0,0,1-.28.46l-.16.1a.43.43,0,0,0-.19.25l0,.05h0v-.1a.6.6,0,0,0,0-.35h0a.65.65,0,0,0,0,.31.53.53,0,0,0,0,.12s0,0,0,0h0l0,0a.32.32,0,0,0-.17-.19l-.24-.11a.59.59,0,0,1-.31-.35.53.53,0,0,0,0-.12c-.05-.21-.1-.42-.14-.62a.67.67,0,0,0-.24-.39A.3.3,0,0,1,0,13H.05a3.13,3.13,0,0,1,.36.22,4.27,4.27,0,0,1,.52.41l.15.16a.61.61,0,0,1,.18.31S1.26,14.15,1.3,14.19Z"/><path class="cls-1" d="M25.88,6.13a.65.65,0,0,1-.08-.28,1.59,1.59,0,0,1,.06-.43,4.17,4.17,0,0,1,.25-.78,1.62,1.62,0,0,1,.1-.18s0,0,0,0,0,.09,0,.13a.58.58,0,0,0,0,.41l.25.58.06.17a.55.55,0,0,1,0,.4l-.1.18-.06.12a.34.34,0,0,0,0,.2s0,.06,0,.09,0,0,0,0a.58.58,0,0,1-.05-.11l0-.06-.14-.16-.05,0a2.44,2.44,0,0,0,.1.24l.14.18s0,0,0,0l0,0a.33.33,0,0,0-.27-.09h-.19a.61.61,0,0,1-.55-.22L24.76,6l-.09-.1a.51.51,0,0,0-.26-.14l-.16,0s0,0-.05,0h.13a3.34,3.34,0,0,1,.62.06,2.74,2.74,0,0,1,.39.09.76.76,0,0,1,.2.06.59.59,0,0,1,.27.17l.05,0h0v0h0Z"/><path class="cls-1" d="M3.6,23.31a.17.17,0,0,1,.1-.06l.38-.07a4.49,4.49,0,0,1,.73-.06h.11a.67.67,0,0,1,.31.1.07.07,0,0,0,.08,0l0-.05a.67.67,0,0,1-.15-.38,4.28,4.28,0,0,1,0-.62,5.09,5.09,0,0,1,0-.55.49.49,0,0,1,0-.11s0,0,0,0v.15a.5.5,0,0,0,.1.31c.05.08.11.15.17.23l.28.35.09.11a.57.57,0,0,1,.07.44.42.42,0,0,1,0,.16v.06a.41.41,0,0,0,0,.31s0,0,0,.07l0,0s0,0,0,0a1,1,0,0,0-.29-.24s0,0,0,.06l0,.06,0,.05,0,.05,0,0,.06,0,.06,0s0,0,0,0h0a.42.42,0,0,0-.31,0l-.15.05a.6.6,0,0,1-.59-.08l-.38-.27-.2-.13a.57.57,0,0,0-.44-.1Z"/><path class="cls-1" d="M2.39,14.43l-.06.08s0,.06-.05.09a.48.48,0,0,0-.1.31v.31l0,.37v.12a.56.56,0,0,1-.22.45l-.12.11a.44.44,0,0,0-.2.31s0,0,0,0,0,0,0,0V16.5a.8.8,0,0,0-.09-.31h0v.27l.06.16c0,.05,0,0,0,0a.05.05,0,0,1,0,0,.41.41,0,0,0-.2-.17l-.17,0-.09,0a.57.57,0,0,1-.31-.28c0-.09-.08-.19-.11-.28s-.1-.28-.14-.41,0-.06,0-.09A.61.61,0,0,0,.19,15a.57.57,0,0,1-.13-.08.06.06,0,0,1,.08,0L.41,15a3.75,3.75,0,0,1,.72.44.39.39,0,0,1,.1.08.51.51,0,0,1,.18.25s0,.05,0,.08,0,0,0,0a.77.77,0,0,1,.13-.46,4.39,4.39,0,0,1,.65-.84l.11-.09h0Z"/><path class="cls-1" d="M7.36.84s0,0,0,.05a.14.14,0,0,1,0,.09,3.9,3.9,0,0,1-.1,1.13.64.64,0,0,1-.2.39.05.05,0,0,0,0,0h.07a.73.73,0,0,1,.38-.08,4.22,4.22,0,0,1,.79.14l.34.11a.22.22,0,0,1,.13.08H8.7l-.14,0a.58.58,0,0,0-.32,0L7.89,3l-.28.15-.12.06a.58.58,0,0,1-.45,0l-.13-.06L6.8,3.05a.39.39,0,0,0-.26,0,0,0,0,0,1-.07,0s0,0,0,0l.08,0a.84.84,0,0,0,.23-.23.4.4,0,0,0-.21.09c-.07,0-.11.11-.17.15s0,0,0,0a.08.08,0,0,1,0,0,.39.39,0,0,0,0-.28.49.49,0,0,0,0-.12s0-.07,0-.1a.57.57,0,0,1,.17-.51L7,1.53l.14-.14A.62.62,0,0,0,7.32,1,.83.83,0,0,1,7.36.84Z"/><path class="cls-1" d="M23.58,1.86a.54.54,0,0,1,0,.18.53.53,0,0,0,.1.35l.05.06.39.49.11.18a.53.53,0,0,1,0,.37.15.15,0,0,1,0,.09s0,.08,0,.12a.43.43,0,0,0,0,.35s0,0,0,0-.09-.15-.17-.2-.1-.07-.17-.1,0,.07.06.11L24,4l.09.07a.22.22,0,0,1,.09.07,0,0,0,0,1,0,0h0a.47.47,0,0,0-.33,0l-.18.06a.53.53,0,0,1-.49-.06c-.14-.08-.26-.17-.39-.26l-.26-.18a.58.58,0,0,0-.4-.1h-.15c-.05,0,0,0,0,0a2.33,2.33,0,0,1,.36-.08,4.25,4.25,0,0,1,.87-.06.69.69,0,0,1,.41.13l0,0h0l-.05-.07a.69.69,0,0,1-.09-.3,3.14,3.14,0,0,1,0-.75A3.59,3.59,0,0,1,23.53,2,.25.25,0,0,1,23.58,1.86Z"/><path class="cls-1" d="M4.54,4.81l.06,0A.81.81,0,0,1,5,4.59a4.36,4.36,0,0,1,1,0l.17,0a.09.09,0,0,1,0,0,.82.82,0,0,0-.22,0,.52.52,0,0,0-.31.12l-.2.18-.35.31-.15.12a.5.5,0,0,1-.31.06l-.23,0a.49.49,0,0,0-.37.06h0m0,0,.06-.06a.55.55,0,0,0,.15-.19l.06-.11a.43.43,0,0,0-.19.14,2.19,2.19,0,0,0-.14.2V5.31A.42.42,0,0,0,4,5S4,4.89,4,4.83A.58.58,0,0,1,4,4.3c.07-.14.15-.27.23-.4l.14-.24a.55.55,0,0,0,.09-.43.68.68,0,0,1,0-.14h0a2.62,2.62,0,0,1,.11.4,5.46,5.46,0,0,1,.1.69v.23a.57.57,0,0,1-.08.28l0,.11Z"/><path class="cls-1" d="M26.18,20.61a0,0,0,0,0,0,0,.79.79,0,0,1,.42-.25,3.43,3.43,0,0,1,.44-.09,5.51,5.51,0,0,1,.57-.06h.21s0,0,0,0l-.13,0a.61.61,0,0,0-.34.17l-.27.31-.19.22a.8.8,0,0,1-.17.15.52.52,0,0,1-.34.09h-.19a.43.43,0,0,0-.35.09s0,0-.06,0,.13-.11.16-.2L26,20.9s0,0,0,0l-.1.1a.39.39,0,0,0-.08.14.75.75,0,0,1-.07.12s0,0,0,0,0,0,0,0a.39.39,0,0,0-.05-.33,1.09,1.09,0,0,0-.08-.15.65.65,0,0,1,0-.59c.06-.14.13-.3.2-.44s.07-.15.1-.23a.55.55,0,0,0,0-.38.13.13,0,0,0,0-.1v-.05s0,0,0,0l.12.28a4.7,4.7,0,0,1,.21.82,1,1,0,0,1,0,.17.56.56,0,0,1,0,.31A0,0,0,0,0,26.18,20.61Z"/><path class="cls-1" d="M29.2,11.19l-.09.1a.55.55,0,0,0-.19.42c0,.21,0,.42-.07.64a.78.78,0,0,1,0,.14.49.49,0,0,1-.22.34l-.16.1a.47.47,0,0,0-.26.31s0,0,0,0,0,0,0,0v-.06a.77.77,0,0,0,0-.37s0,.08,0,.12v.12a.43.43,0,0,0,0,.11.2.2,0,0,1,0,.11h0a.08.08,0,0,1,0,0,.44.44,0,0,0-.2-.24l-.2-.1a.54.54,0,0,1-.31-.35l0-.12c0-.11-.05-.23-.07-.34l-.06-.31a.64.64,0,0,0-.22-.37.32.32,0,0,1-.12-.11s.05,0,.06,0l.31.19a3.88,3.88,0,0,1,.62.52l.08.08a.77.77,0,0,1,.16.31s0,0,0,.06v-.06a.73.73,0,0,1,.14-.31,3.43,3.43,0,0,1,.43-.5,3.91,3.91,0,0,1,.44-.37A.09.09,0,0,1,29.2,11.19Z"/><path class="cls-1" d="M20.31,1.4h-.06a.65.65,0,0,0-.31,0,1.14,1.14,0,0,1-.52,0,.57.57,0,0,1-.19-.1l-.17-.15a3.87,3.87,0,0,1-.63-.87.24.24,0,0,1-.05-.13l0,0a.48.48,0,0,1,.09.11.53.53,0,0,0,.28.18L19,.48l.51.11.13,0A.55.55,0,0,1,20,.9l.09.19a.4.4,0,0,0,.24.25S20.33,1.36,20.31,1.4Z"/><path class="cls-1" d="M9.08,1.4v0l.05,0a.41.41,0,0,0,.19-.18.47.47,0,0,1,0-.1L9.43.93A.55.55,0,0,1,9.8.62l.29-.07.47-.1a.58.58,0,0,0,.35-.24A.52.52,0,0,1,11,.1s0,0,0,0a4,4,0,0,1-.2.35,6.86,6.86,0,0,1-.48.59l-.06,0a.77.77,0,0,1-.55.24,1.61,1.61,0,0,1-.31,0,.38.38,0,0,0-.21,0Z"/><path class="cls-1" d="M14.71,26.78a.33.33,0,0,1,.33.33h0a.34.34,0,0,1-.34.34h0a.34.34,0,0,1-.33-.34h0a.33.33,0,0,1,.33-.33Z"/><path class="cls-1" d="M9.61,10.27h0Z"/><path class="cls-1" d="M1.94,17.84v0Z"/><path class="cls-1" d="M25.88,6.13v0h0v0Z"/></g></g><text class="cls-2" transform="translate(43.69 19.24)">Huione <tspan class="cls-3" x="63.77" y="0">O</tspan><tspan x="79.05" y="0">A</tspan></text></g></g></svg>