<?xml version="1.0" standalone="no"?><!DOCTYPE svg PUBLIC "-//W3C//DTD SVG 1.1//EN" "http://www.w3.org/Graphics/SVG/1.1/DTD/svg11.dtd"><svg class="icon" width="200px" height="200.00px" fill="#fff" viewBox="0 0 1024 1024" version="1.1" xmlns="http://www.w3.org/2000/svg"><path d="M512 42.65984q95.66208 0 182.49728 37.1712t149.66784 100.00384 100.00384 149.66784 37.1712 182.49728-37.1712 182.49728-100.00384 149.66784-149.66784 100.00384-182.49728 37.1712-182.49728-37.1712-149.66784-100.00384-100.00384-149.66784-37.1712-182.49728 37.1712-182.49728 100.00384-149.66784 149.66784-100.00384 182.49728-37.1712zM469.34016 554.65984l0-424.32512q-71.00416 8.00768-134.16448 41.1648t-108.66688 83.49696-72.00768 117.32992-26.50112 139.6736q0 78.00832 30.49472 149.17632t81.83808 122.49088 122.49088 81.83808 149.17632 30.49472q72.66304 0 139.6736-26.50112t117.32992-72.00768 83.49696-108.66688 41.1648-134.16448l-424.32512 0zM554.65984 130.33472l0 339.00544 339.00544 0q-7.33184-66.00704-36.33152-125.17376t-73.66656-103.8336-103.8336-73.66656-125.17376-36.33152z" /></svg>